  0
SECTION
  2
HEADER
  9
$ACADVER
  1
AC1018
  9
$ACADMAINTVER
 70
     0
  9
$DWGCODEPAGE
  3
ANSI_1252
  9
$INSBASE
 10
0.0
 20
0.0
 30
0.0
  9
$EXTMIN
 10
227.4720636111111
 20
-13.01383111111111
 30
0.0
  9
$EXTMAX
 10
437.4719963888888
 20
283.9859347222222
 30
0.0
  9
$LIMMIN
 10
0.0
 20
0.0
  9
$LIMMAX
 10
12.0
 20
9.0
  9
$ORTHOMODE
 70
     0
  9
$REGENMODE
 70
     1
  9
$FILLMODE
 70
     1
  9
$QTEXTMODE
 70
     0
  9
$MIRRTEXT
 70
     1
  9
$LTSCALE
 40
1.0
  9
$ATTMODE
 70
     1
  9
$TEXTSIZE
 40
0.2
  9
$TRACEWID
 40
0.05
  9
$TEXTSTYLE
  7
Standard
  9
$CLAYER
  8
Default
  9
$CELTYPE
  6
ByLayer
  9
$CECOLOR
 62
   256
  9
$CELTSCALE
 40
1.0
  9
$DISPSILH
 70
     0
  9
$DIMSCALE
 40
1.0
  9
$DIMASZ
 40
0.18
  9
$DIMEXO
 40
0.0625
  9
$DIMDLI
 40
0.38
  9
$DIMRND
 40
0.0
  9
$DIMDLE
 40
0.0
  9
$DIMEXE
 40
0.18
  9
$DIMTP
 40
0.0
  9
$DIMTM
 40
0.0
  9
$DIMTXT
 40
0.18
  9
$DIMCEN
 40
0.09
  9
$DIMTSZ
 40
0.0
  9
$DIMTOL
 70
     0
  9
$DIMLIM
 70
     0
  9
$DIMTIH
 70
     1
  9
$DIMTOH
 70
     1
  9
$DIMSE1
 70
     0
  9
$DIMSE2
 70
     0
  9
$DIMTAD
 70
     0
  9
$DIMZIN
 70
     0
  9
$DIMBLK
  1

  9
$DIMASO
 70
     1
  9
$DIMSHO
 70
     1
  9
$DIMPOST
  1

  9
$DIMAPOST
  1

  9
$DIMALT
 70
     0
  9
$DIMALTD
 70
     2
  9
$DIMALTF
 40
25.4
  9
$DIMLFAC
 40
1.0
  9
$DIMTOFL
 70
     0
  9
$DIMTVP
 40
0.0
  9
$DIMTIX
 70
     0
  9
$DIMSOXD
 70
     0
  9
$DIMSAH
 70
     0
  9
$DIMBLK1
  1

  9
$DIMBLK2
  1

  9
$DIMSTYLE
  2
Standard
  9
$DIMCLRD
 70
     0
  9
$DIMCLRE
 70
     0
  9
$DIMCLRT
 70
     0
  9
$DIMTFAC
 40
1.0
  9
$DIMGAP
 40
0.09
  9
$DIMJUST
 70
     0
  9
$DIMSD1
 70
     0
  9
$DIMSD2
 70
     0
  9
$DIMTOLJ
 70
     1
  9
$DIMTZIN
 70
     0
  9
$DIMALTZ
 70
     0
  9
$DIMALTTZ
 70
     0
  9
$DIMUPT
 70
     0
  9
$DIMDEC
 70
     4
  9
$DIMTDEC
 70
     4
  9
$DIMALTU
 70
     2
  9
$DIMALTTD
 70
     2
  9
$DIMTXSTY
  7
Standard
  9
$DIMAUNIT
 70
     0
  9
$DIMADEC
 70
     0
  9
$DIMALTRND
 40
0.0
  9
$DIMAZIN
 70
     0
  9
$DIMDSEP
 70
    46
  9
$DIMATFIT
 70
     3
  9
$DIMFRAC
 70
     0
  9
$DIMLDRBLK
  1

  9
$DIMLUNIT
 70
     2
  9
$DIMLWD
 70
    -2
  9
$DIMLWE
 70
    -2
  9
$DIMTMOVE
 70
     2
  9
$LUNITS
 70
     2
  9
$LUPREC
 70
     3
  9
$SKETCHINC
 40
0.1
  9
$FILLETRAD
 40
0.5
  9
$AUNITS
 70
     0
  9
$AUPREC
 70
     0
  9
$MENU
  1
.
  9
$ELEVATION
 40
0.0
  9
$PELEVATION
 40
0.0
  9
$THICKNESS
 40
0.0
  9
$LIMCHECK
 70
     0
  9
$CHAMFERA
 40
0.5
  9
$CHAMFERB
 40
0.5
  9
$CHAMFERC
 40
1.0
  9
$CHAMFERD
 40
0.0
  9
$SKPOLY
 70
     0
  9
$TDCREATE
 40
2458051.418897859
  9
$TDUCREATE
 40
2458051.335564525
  9
$TDUPDATE
 40
2458051.41889787
  9
$TDUUPDATE
 40
2458051.335564537
  9
$TDINDWG
 40
0.0000000116
  9
$TDUSRTIMER
 40
0.0000000116
  9
$USRTIMER
 70
     1
  9
$ANGBASE
 50
0.0
  9
$ANGDIR
 70
     0
  9
$PDMODE
 70
     0
  9
$PDSIZE
 40
0.0
  9
$PLINEWID
 40
0.0
  9
$SPLFRAME
 70
     0
  9
$SPLINETYPE
 70
     6
  9
$SPLINESEGS
 70
     8
  9
$HANDSEED
  5
326
  9
$SURFTAB1
 70
     6
  9
$SURFTAB2
 70
     6
  9
$SURFTYPE
 70
     6
  9
$SURFU
 70
     6
  9
$SURFV
 70
     6
  9
$UCSBASE
  2

  9
$UCSNAME
  2

  9
$UCSORG
 10
0.0
 20
0.0
 30
0.0
  9
$UCSXDIR
 10
1.0
 20
0.0
 30
0.0
  9
$UCSYDIR
 10
0.0
 20
1.0
 30
0.0
  9
$UCSORTHOREF
  2

  9
$UCSORTHOVIEW
 70
     0
  9
$UCSORGTOP
 10
0.0
 20
0.0
 30
0.0
  9
$UCSORGBOTTOM
 10
0.0
 20
0.0
 30
0.0
  9
$UCSORGLEFT
 10
0.0
 20
0.0
 30
0.0
  9
$UCSORGRIGHT
 10
0.0
 20
0.0
 30
0.0
  9
$UCSORGFRONT
 10
0.0
 20
0.0
 30
0.0
  9
$UCSORGBACK
 10
0.0
 20
0.0
 30
0.0
  9
$PUCSBASE
  2

  9
$PUCSNAME
  2

  9
$PUCSORG
 10
0.0
 20
0.0
 30
0.0
  9
$PUCSXDIR
 10
1.0
 20
0.0
 30
0.0
  9
$PUCSYDIR
 10
0.0
 20
1.0
 30
0.0
  9
$PUCSORTHOREF
  2

  9
$PUCSORTHOVIEW
 70
     0
  9
$PUCSORGTOP
 10
0.0
 20
0.0
 30
0.0
  9
$PUCSORGBOTTOM
 10
0.0
 20
0.0
 30
0.0
  9
$PUCSORGLEFT
 10
0.0
 20
0.0
 30
0.0
  9
$PUCSORGRIGHT
 10
0.0
 20
0.0
 30
0.0
  9
$PUCSORGFRONT
 10
0.0
 20
0.0
 30
0.0
  9
$PUCSORGBACK
 10
0.0
 20
0.0
 30
0.0
  9
$USERI1
 70
     0
  9
$USERI2
 70
     0
  9
$USERI3
 70
     0
  9
$USERI4
 70
     0
  9
$USERI5
 70
     0
  9
$USERR1
 40
0.0
  9
$USERR2
 40
0.0
  9
$USERR3
 40
0.0
  9
$USERR4
 40
0.0
  9
$USERR5
 40
0.0
  9
$WORLDVIEW
 70
     1
  9
$SHADEDGE
 70
     3
  9
$SHADEDIF
 70
    70
  9
$TILEMODE
 70
     1
  9
$MAXACTVP
 70
    64
  9
$PINSBASE
 10
0.0
 20
0.0
 30
0.0
  9
$PLIMCHECK
 70
     0
  9
$PEXTMIN
 10
1.000000000000000E+20
 20
1.000000000000000E+20
 30
1.000000000000000E+20
  9
$PEXTMAX
 10
-1.000000000000000E+20
 20
-1.000000000000000E+20
 30
-1.000000000000000E+20
  9
$PLIMMIN
 10
0.0
 20
0.0
  9
$PLIMMAX
 10
12.0
 20
9.0
  9
$UNITMODE
 70
     0
  9
$VISRETAIN
 70
     1
  9
$PLINEGEN
 70
     0
  9
$PSLTSCALE
 70
     1
  9
$TREEDEPTH
 70
  3020
  9
$CMLSTYLE
  2
Standard
  9
$CMLJUST
 70
     0
  9
$CMLSCALE
 40
1.0
  9
$PROXYGRAPHICS
 70
     1
  9
$MEASUREMENT
 70
     0
  9
$CELWEIGHT
370
    -1
  9
$ENDCAPS
280
     0
  9
$JOINSTYLE
280
     0
  9
$LWDISPLAY
290
     0
  9
$INSUNITS
 70
     4
  9
$HYPERLINKBASE
  1

  9
$STYLESHEET
  1

  9
$XEDIT
290
     1
  9
$CEPSNTYPE
380
     0
  9
$PSTYLEMODE
290
     1
  9
$FINGERPRINTGUID
  2
{EA067960-A0A2-4B15-A51E-832B2AA9AD4F}
  9
$VERSIONGUID
  2
{FAEB1C32-E019-11D5-929B-00C0DF256EC4}
  9
$EXTNAMES
290
     1
  9
$PSVPSCALE
 40
0.0
  9
$OLESTARTUP
290
     0
  9
$SORTENTS
280
   127
  9
$INDEXCTL
280
     0
  9
$HIDETEXT
280
     1
  9
$XCLIPFRAME
290
     0
  9
$HALOGAP
280
     0
  9
$OBSCOLOR
 70
   257
  9
$OBSLTYPE
280
     0
  9
$INTERSECTIONDISPLAY
280
     0
  9
$INTERSECTIONCOLOR
 70
   257
  9
$DIMASSOC
280
     2
  9
$PROJECTNAME
  1

  0
ENDSEC
  0
SECTION
  2
CLASSES
  0
CLASS
  1
ACDBDICTIONARYWDFLT
  2
AcDbDictionaryWithDefault
  3
ObjectDBX Classes
 90
        0
 91
        4
280
     0
281
     0
  0
CLASS
  1
VISUALSTYLE
  2
AcDbVisualStyle
  3
ObjectDBX Classes
 90
     4095
 91
        4
280
     0
281
     0
  0
ENDSEC
  0
SECTION
  2
TABLES
  0
TABLE
  2
VPORT
  5
8
330
0
100
AcDbSymbolTable
 70
     1
  0
VPORT
  5
29
330
8
100
AcDbSymbolTableRecord
100
AcDbViewportTableRecord
  2
*Active
 70
     0
 10
0.0
 20
0.0
 11
1.0
 21
1.0
 12
332.47203
 22
135.4860518055555
 13
0.0
 23
0.0
 14
0.5
 24
0.5
 15
0.5
 25
0.5
 16
0.0
 26
0.0
 36
1.0
 17
0.0
 27
0.0
 37
0.0
 40
302.93976115
 41
0.707071038216316
 42
50.0
 43
0.0
 44
0.0
 50
0.0
 51
0.0
 71
     0
 72
   100
 73
     1
 74
     3
 75
     0
 76
     0
 77
     0
 78
     0
281
     0
 65
     1
110
0.0
120
0.0
130
0.0
111
1.0
121
0.0
131
0.0
112
0.0
122
1.0
132
0.0
 79
     0
146
0.0
  0
ENDTAB
  0
TABLE
  2
LTYPE
  5
5
330
0
100
AcDbSymbolTable
 70
     1
  0
LTYPE
  5
14
330
5
100
AcDbSymbolTableRecord
100
AcDbLinetypeTableRecord
  2
ByBlock
 70
     0
  3

 72
    65
 73
     0
 40
0.0
  0
LTYPE
  5
15
330
5
100
AcDbSymbolTableRecord
100
AcDbLinetypeTableRecord
  2
ByLayer
 70
     0
  3

 72
    65
 73
     0
 40
0.0
  0
LTYPE
  5
16
330
5
100
AcDbSymbolTableRecord
100
AcDbLinetypeTableRecord
  2
Continuous
 70
     0
  3
Solid line
 72
    65
 73
     0
 40
0.0
  0
ENDTAB
  0
TABLE
  2
LAYER
  5
2
330
0
100
AcDbSymbolTable
 70
     2
  0
LAYER
  5
10
330
2
100
AcDbSymbolTableRecord
100
AcDbLayerTableRecord
  2
0
 70
     0
 62
     7
  6
Continuous
370
    -3
390
F
  0
LAYER
  5
3B
330
2
100
AcDbSymbolTableRecord
100
AcDbLayerTableRecord
  2
Default
 70
     0
 62
     7
  6
Continuous
370
    -3
390
F
  0
ENDTAB
  0
TABLE
  2
STYLE
  5
3
330
0
100
AcDbSymbolTable
 70
     1
  0
STYLE
  5
11
330
3
100
AcDbSymbolTableRecord
100
AcDbTextStyleTableRecord
  2
Standard
 70
     0
 40
0.0
 41
1.0
 50
0.0
 71
     0
 42
0.2
  3
txt
  4

  0
ENDTAB
  0
TABLE
  2
VIEW
  5
6
330
0
100
AcDbSymbolTable
 70
     0
  0
ENDTAB
  0
TABLE
  2
UCS
  5
7
330
0
100
AcDbSymbolTable
 70
     0
  0
ENDTAB
  0
TABLE
  2
APPID
  5
9
330
0
100
AcDbSymbolTable
 70
     1
  0
APPID
  5
12
330
9
100
AcDbSymbolTableRecord
100
AcDbRegAppTableRecord
  2
ACAD
 70
     0
  0
ENDTAB
  0
TABLE
  2
DIMSTYLE
  5
A
330
0
100
AcDbSymbolTable
 70
     1
100
AcDbDimStyleTable
  0
DIMSTYLE
105
27
330
A
100
AcDbSymbolTableRecord
100
AcDbDimStyleTableRecord
  2
Standard
 70
     0
340
11
  0
ENDTAB
  0
TABLE
  2
BLOCK_RECORD
  5
1
330
0
100
AcDbSymbolTable
 70
     1
  0
BLOCK_RECORD
  5
1F
330
1
100
AcDbSymbolTableRecord
100
AcDbBlockTableRecord
  2
*Model_Space
340
22
  0
BLOCK_RECORD
  5
1B
330
1
100
AcDbSymbolTableRecord
100
AcDbBlockTableRecord
  2
*Paper_Space
340
1E
  0
BLOCK_RECORD
  5
23
330
1
100
AcDbSymbolTableRecord
100
AcDbBlockTableRecord
  2
*Paper_Space0
340
26
  0
ENDTAB
  0
ENDSEC
  0
SECTION
  2
BLOCKS
  0
BLOCK
  5
20
330
1F
100
AcDbEntity
  8
0
100
AcDbBlockBegin
  2
*Model_Space
 70
     0
 10
0.0
 20
0.0
 30
0.0
  3
*Model_Space
  1

  0
ENDBLK
  5
21
330
1F
100
AcDbEntity
  8
0
100
AcDbBlockEnd
  0
BLOCK
  5
1C
330
1B
100
AcDbEntity
 67
     1
  8
0
100
AcDbBlockBegin
  2
*Paper_Space
 70
     0
 10
0.0
 20
0.0
 30
0.0
  3
*Paper_Space
  1

  0
ENDBLK
  5
1D
330
1B
100
AcDbEntity
 67
     1
  8
0
100
AcDbBlockEnd
  0
BLOCK
  5
24
330
23
100
AcDbEntity
  8
0
100
AcDbBlockBegin
  2
*Paper_Space0
 70
     0
 10
0.0
 20
0.0
 30
0.0
  3
*Paper_Space0
  1

  0
ENDBLK
  5
25
330
23
100
AcDbEntity
  8
0
100
AcDbBlockEnd
  0
ENDSEC
  0
SECTION
  2
ENTITIES
  0
POLYLINE
  5
3C
330
1F
100
AcDbEntity
  8
Default
100
AcDb2dPolyline
 66
     1
 10
0.0
 20
0.0
 30
0.0
  0
VERTEX
  5
3D
330
3C
100
AcDbEntity
  8
Default
100
AcDbVertex
100
AcDb2dVertex
 10
227.4720636111111
 20
-13.01383111111111
 30
0.0
  0
VERTEX
  5
3E
330
3C
100
AcDbEntity
  8
Default
100
AcDbVertex
100
AcDb2dVertex
 10
437.4719963888888
 20
-13.01383111111111
 30
0.0
  0
SEQEND
  5
3F
330
3C
100
AcDbEntity
  8
Default
  0
POLYLINE
  5
40
330
1F
100
AcDbEntity
  8
Default
100
AcDb2dPolyline
 66
     1
 10
0.0
 20
0.0
 30
0.0
  0
VERTEX
  5
41
330
40
100
AcDbEntity
  8
Default
100
AcDbVertex
100
AcDb2dVertex
 10
437.4719963888888
 20
-13.01383111111111
 30
0.0
  0
VERTEX
  5
42
330
40
100
AcDbEntity
  8
Default
100
AcDbVertex
100
AcDb2dVertex
 10
437.4719963888888
 20
283.9859347222222
 30
0.0
  0
SEQEND
  5
43
330
40
100
AcDbEntity
  8
Default
  0
POLYLINE
  5
44
330
1F
100
AcDbEntity
  8
Default
100
AcDb2dPolyline
 66
     1
 10
0.0
 20
0.0
 30
0.0
  0
VERTEX
  5
45
330
44
100
AcDbEntity
  8
Default
100
AcDbVertex
100
AcDb2dVertex
 10
437.4719963888888
 20
283.9859347222222
 30
0.0
  0
VERTEX
  5
46
330
44
100
AcDbEntity
  8
Default
100
AcDbVertex
100
AcDb2dVertex
 10
227.4720636111111
 20
283.9859347222222
 30
0.0
  0
SEQEND
  5
47
330
44
100
AcDbEntity
  8
Default
  0
POLYLINE
  5
48
330
1F
100
AcDbEntity
  8
Default
100
AcDb2dPolyline
 66
     1
 10
0.0
 20
0.0
 30
0.0
  0
VERTEX
  5
49
330
48
100
AcDbEntity
  8
Default
100
AcDbVertex
100
AcDb2dVertex
 10
227.4720636111111
 20
283.9859347222222
 30
0.0
  0
VERTEX
  5
4A
330
48
100
AcDbEntity
  8
Default
100
AcDbVertex
100
AcDb2dVertex
 10
227.4720636111111
 20
-13.01383111111111
 30
0.0
  0
SEQEND
  5
4B
330
48
100
AcDbEntity
  8
Default
  0
POLYLINE
  5
4C
330
1F
100
AcDbEntity
  8
Default
100
AcDb2dPolyline
 66
     1
 10
0.0
 20
0.0
 30
0.0
  0
VERTEX
  5
4D
330
4C
100
AcDbEntity
  8
Default
100
AcDbVertex
100
AcDb2dVertex
 10
266.57427
 20
27.88969388888889
 30
0.0
  0
VERTEX
  5
4E
330
4C
100
AcDbEntity
  8
Default
100
AcDbVertex
100
AcDb2dVertex
 10
277.0742066666666
 20
27.88969388888889
 30
0.0
  0
SEQEND
  5
4F
330
4C
100
AcDbEntity
  8
Default
  0
POLYLINE
  5
50
330
1F
100
AcDbEntity
  8
Default
100
AcDb2dPolyline
 66
     1
 10
0.0
 20
0.0
 30
0.0
  0
VERTEX
  5
51
330
50
100
AcDbEntity
  8
Default
100
AcDbVertex
100
AcDb2dVertex
 10
277.0742066666666
 20
27.88969388888889
 30
0.0
  0
VERTEX
  5
52
330
50
100
AcDbEntity
  8
Default
100
AcDbVertex
100
AcDb2dVertex
 10
277.3042590241835
 20
27.90130988098144
 30
0.0
  0
VERTEX
  5
53
330
50
100
AcDbEntity
  8
Default
100
AcDbVertex
100
AcDb2dVertex
 10
277.5276648106553
 20
27.93540362250434
 30
0.0
  0
VERTEX
  5
54
330
50
100
AcDbEntity
  8
Default
100
AcDbVertex
100
AcDb2dVertex
 10
277.7432931907144
 20
27.99084376132541
 30
0.0
  0
VERTEX
  5
55
330
50
100
AcDbEntity
  8
Default
100
AcDbVertex
100
AcDb2dVertex
 10
277.950013328993
 20
28.0664989453125
 30
0.0
  0
VERTEX
  5
56
330
50
100
AcDbEntity
  8
Default
100
AcDbVertex
100
AcDb2dVertex
 10
278.1466943901231
 20
28.16123782233344
 30
0.0
  0
VERTEX
  5
57
330
50
100
AcDbEntity
  8
Default
100
AcDbVertex
100
AcDb2dVertex
 10
278.3322055387369
 20
28.27392904025607
 30
0.0
  0
VERTEX
  5
58
330
50
100
AcDbEntity
  8
Default
100
AcDbVertex
100
AcDb2dVertex
 10
278.5054159394666
 20
28.40344124694824
 30
0.0
  0
VERTEX
  5
59
330
50
100
AcDbEntity
  8
Default
100
AcDbVertex
100
AcDb2dVertex
 10
278.6651947569444
 20
28.54864309027777
 30
0.0
  0
VERTEX
  5
5A
330
50
100
AcDbEntity
  8
Default
100
AcDbVertex
100
AcDb2dVertex
 10
278.8104111558024
 20
28.70840321811252
 30
0.0
  0
VERTEX
  5
5B
330
50
100
AcDbEntity
  8
Default
100
AcDbVertex
100
AcDb2dVertex
 10
278.9399343006727
 20
28.88159027832031
 30
0.0
  0
VERTEX
  5
5C
330
50
100
AcDbEntity
  8
Default
100
AcDbVertex
100
AcDb2dVertex
 10
279.0526333561876
 20
29.06707291876899
 30
0.0
  0
VERTEX
  5
5D
330
50
100
AcDbEntity
  8
Default
100
AcDbVertex
100
AcDb2dVertex
 10
279.1473774869792
 20
29.26371978732638
 30
0.0
  0
VERTEX
  5
5E
330
50
100
AcDbEntity
  8
Default
100
AcDbVertex
100
AcDb2dVertex
 10
279.2230358576796
 20
29.47039953186034
 30
0.0
  0
VERTEX
  5
5F
330
50
100
AcDbEntity
  8
Default
100
AcDbVertex
100
AcDb2dVertex
 10
279.278477632921
 20
29.68598080023871
 30
0.0
  0
VERTEX
  5
60
330
50
100
AcDbEntity
  8
Default
100
AcDbVertex
100
AcDb2dVertex
 10
279.3125719773356
 20
29.90933224032931
 30
0.0
  0
VERTEX
  5
61
330
50
100
AcDbEntity
  8
Default
100
AcDbVertex
100
AcDb2dVertex
 10
279.3241880555556
 20
30.1393225
 30
0.0
  0
SEQEND
  5
62
330
50
100
AcDbEntity
  8
Default
  0
POLYLINE
  5
63
330
1F
100
AcDbEntity
  8
Default
100
AcDb2dPolyline
 66
     1
 10
0.0
 20
0.0
 30
0.0
  0
VERTEX
  5
64
330
63
100
AcDbEntity
  8
Default
100
AcDbVertex
100
AcDb2dVertex
 10
279.3241880555556
 20
30.1393225
 30
0.0
  0
VERTEX
  5
65
330
63
100
AcDbEntity
  8
Default
100
AcDbVertex
100
AcDb2dVertex
 10
279.3125719773356
 20
30.36943338968912
 30
0.0
  0
VERTEX
  5
66
330
63
100
AcDbEntity
  8
Default
100
AcDbVertex
100
AcDb2dVertex
 10
279.278477632921
 20
30.59288344563802
 30
0.0
  0
VERTEX
  5
67
330
63
100
AcDbEntity
  8
Default
100
AcDbVertex
100
AcDb2dVertex
 10
279.2230358576796
 20
30.80854327941894
 30
0.0
  0
VERTEX
  5
68
330
63
100
AcDbEntity
  8
Default
100
AcDbVertex
100
AcDb2dVertex
 10
279.1473774869792
 20
31.01528350260416
 30
0.0
  0
VERTEX
  5
69
330
63
100
AcDbEntity
  8
Default
100
AcDbVertex
100
AcDb2dVertex
 10
279.0526333561876
 20
31.21197472676594
 30
0.0
  0
VERTEX
  5
6A
330
63
100
AcDbEntity
  8
Default
100
AcDbVertex
100
AcDb2dVertex
 10
278.9399343006727
 20
31.39748756347656
 30
0.0
  0
VERTEX
  5
6B
330
63
100
AcDbEntity
  8
Default
100
AcDbVertex
100
AcDb2dVertex
 10
278.8104111558024
 20
31.57069262430826
 30
0.0
  0
VERTEX
  5
6C
330
63
100
AcDbEntity
  8
Default
100
AcDbVertex
100
AcDb2dVertex
 10
278.6651947569444
 20
31.73046052083333
 30
0.0
  0
VERTEX
  5
6D
330
63
100
AcDbEntity
  8
Default
100
AcDbVertex
100
AcDb2dVertex
 10
278.5054159394666
 20
31.87566186462402
 30
0.0
  0
VERTEX
  5
6E
330
63
100
AcDbEntity
  8
Default
100
AcDbVertex
100
AcDb2dVertex
 10
278.3322055387369
 20
32.0051672672526
 30
0.0
  0
VERTEX
  5
6F
330
63
100
AcDbEntity
  8
Default
100
AcDbVertex
100
AcDb2dVertex
 10
278.1466943901231
 20
32.11784734029133
 30
0.0
  0
VERTEX
  5
70
330
63
100
AcDbEntity
  8
Default
100
AcDbVertex
100
AcDb2dVertex
 10
277.950013328993
 20
32.21257269531249
 30
0.0
  0
VERTEX
  5
71
330
63
100
AcDbEntity
  8
Default
100
AcDbVertex
100
AcDb2dVertex
 10
277.7432931907144
 20
32.28821394388834
 30
0.0
  0
VERTEX
  5
72
330
63
100
AcDbEntity
  8
Default
100
AcDbVertex
100
AcDb2dVertex
 10
277.5276648106553
 20
32.34364169759114
 30
0.0
  0
VERTEX
  5
73
330
63
100
AcDbEntity
  8
Default
100
AcDbVertex
100
AcDb2dVertex
 10
277.3042590241835
 20
32.37772656799316
 30
0.0
  0
VERTEX
  5
74
330
63
100
AcDbEntity
  8
Default
100
AcDbVertex
100
AcDb2dVertex
 10
277.0742066666666
 20
32.38933916666666
 30
0.0
  0
SEQEND
  5
75
330
63
100
AcDbEntity
  8
Default
  0
POLYLINE
  5
76
330
1F
100
AcDbEntity
  8
Default
100
AcDb2dPolyline
 66
     1
 10
0.0
 20
0.0
 30
0.0
  0
VERTEX
  5
77
330
76
100
AcDbEntity
  8
Default
100
AcDbVertex
100
AcDb2dVertex
 10
277.0742066666666
 20
32.38933916666666
 30
0.0
  0
VERTEX
  5
78
330
76
100
AcDbEntity
  8
Default
100
AcDbVertex
100
AcDb2dVertex
 10
266.57427
 20
32.38933916666666
 30
0.0
  0
SEQEND
  5
79
330
76
100
AcDbEntity
  8
Default
  0
POLYLINE
  5
7A
330
1F
100
AcDbEntity
  8
Default
100
AcDb2dPolyline
 66
     1
 10
0.0
 20
0.0
 30
0.0
  0
VERTEX
  5
7B
330
7A
100
AcDbEntity
  8
Default
100
AcDbVertex
100
AcDb2dVertex
 10
266.57427
 20
32.38933916666666
 30
0.0
  0
VERTEX
  5
7C
330
7A
100
AcDbEntity
  8
Default
100
AcDbVertex
100
AcDb2dVertex
 10
266.3442172462971
 20
32.37772656799316
 30
0.0
  0
VERTEX
  5
7D
330
7A
100
AcDbEntity
  8
Default
100
AcDbVertex
100
AcDb2dVertex
 10
266.1208103401692
 20
32.34364169759114
 30
0.0
  0
VERTEX
  5
7E
330
7A
100
AcDbEntity
  8
Default
100
AcDbVertex
100
AcDb2dVertex
 10
265.9051802203369
 20
32.28821394388834
 30
0.0
  0
VERTEX
  5
7F
330
7A
100
AcDbEntity
  8
Default
100
AcDbVertex
100
AcDb2dVertex
 10
265.6984578255208
 20
32.21257269531249
 30
0.0
  0
VERTEX
  5
80
330
7A
100
AcDbEntity
  8
Default
100
AcDbVertex
100
AcDb2dVertex
 10
265.5017740944417
 20
32.11784734029133
 30
0.0
  0
VERTEX
  5
81
330
7A
100
AcDbEntity
  8
Default
100
AcDbVertex
100
AcDb2dVertex
 10
265.3162599658203
 20
32.0051672672526
 30
0.0
  0
VERTEX
  5
82
330
7A
100
AcDbEntity
  8
Default
100
AcDbVertex
100
AcDb2dVertex
 10
265.1430463783772
 20
31.87566186462402
 30
0.0
  0
VERTEX
  5
83
330
7A
100
AcDbEntity
  8
Default
100
AcDbVertex
100
AcDb2dVertex
 10
264.9832642708333
 20
31.73046052083333
 30
0.0
  0
VERTEX
  5
84
330
7A
100
AcDbEntity
  8
Default
100
AcDbVertex
100
AcDb2dVertex
 10
264.8380445819091
 20
31.57069262430826
 30
0.0
  0
VERTEX
  5
85
330
7A
100
AcDbEntity
  8
Default
100
AcDbVertex
100
AcDb2dVertex
 10
264.7085182503255
 20
31.39748756347656
 30
0.0
  0
VERTEX
  5
86
330
7A
100
AcDbEntity
  8
Default
100
AcDbVertex
100
AcDb2dVertex
 10
264.595816214803
 20
31.21197472676594
 30
0.0
  0
VERTEX
  5
87
330
7A
100
AcDbEntity
  8
Default
100
AcDbVertex
100
AcDb2dVertex
 10
264.5010694140624
 20
31.01528350260416
 30
0.0
  0
VERTEX
  5
88
330
7A
100
AcDbEntity
  8
Default
100
AcDbVertex
100
AcDb2dVertex
 10
264.4254087868245
 20
30.80854327941894
 30
0.0
  0
VERTEX
  5
89
330
7A
100
AcDbEntity
  8
Default
100
AcDbVertex
100
AcDb2dVertex
 10
264.3699652718099
 20
30.59288344563802
 30
0.0
  0
VERTEX
  5
8A
330
7A
100
AcDbEntity
  8
Default
100
AcDbVertex
100
AcDb2dVertex
 10
264.3358698077392
 20
30.36943338968912
 30
0.0
  0
VERTEX
  5
8B
330
7A
100
AcDbEntity
  8
Default
100
AcDbVertex
100
AcDb2dVertex
 10
264.3242533333333
 20
30.1393225
 30
0.0
  0
SEQEND
  5
8C
330
7A
100
AcDbEntity
  8
Default
  0
POLYLINE
  5
8D
330
1F
100
AcDbEntity
  8
Default
100
AcDb2dPolyline
 66
     1
 10
0.0
 20
0.0
 30
0.0
  0
VERTEX
  5
8E
330
8D
100
AcDbEntity
  8
Default
100
AcDbVertex
100
AcDb2dVertex
 10
264.3242533333333
 20
30.1393225
 30
0.0
  0
VERTEX
  5
8F
330
8D
100
AcDbEntity
  8
Default
100
AcDbVertex
100
AcDb2dVertex
 10
264.3358698077392
 20
29.90933224032931
 30
0.0
  0
VERTEX
  5
90
330
8D
100
AcDbEntity
  8
Default
100
AcDbVertex
100
AcDb2dVertex
 10
264.3699652718099
 20
29.68598080023871
 30
0.0
  0
VERTEX
  5
91
330
8D
100
AcDbEntity
  8
Default
100
AcDbVertex
100
AcDb2dVertex
 10
264.4254087868245
 20
29.47039953186034
 30
0.0
  0
VERTEX
  5
92
330
8D
100
AcDbEntity
  8
Default
100
AcDbVertex
100
AcDb2dVertex
 10
264.5010694140624
 20
29.26371978732638
 30
0.0
  0
VERTEX
  5
93
330
8D
100
AcDbEntity
  8
Default
100
AcDbVertex
100
AcDb2dVertex
 10
264.595816214803
 20
29.06707291876899
 30
0.0
  0
VERTEX
  5
94
330
8D
100
AcDbEntity
  8
Default
100
AcDbVertex
100
AcDb2dVertex
 10
264.7085182503255
 20
28.88159027832031
 30
0.0
  0
VERTEX
  5
95
330
8D
100
AcDbEntity
  8
Default
100
AcDbVertex
100
AcDb2dVertex
 10
264.8380445819091
 20
28.70840321811252
 30
0.0
  0
VERTEX
  5
96
330
8D
100
AcDbEntity
  8
Default
100
AcDbVertex
100
AcDb2dVertex
 10
264.9832642708333
 20
28.54864309027777
 30
0.0
  0
VERTEX
  5
97
330
8D
100
AcDbEntity
  8
Default
100
AcDbVertex
100
AcDb2dVertex
 10
265.1430463783772
 20
28.40344124694824
 30
0.0
  0
VERTEX
  5
98
330
8D
100
AcDbEntity
  8
Default
100
AcDbVertex
100
AcDb2dVertex
 10
265.3162599658203
 20
28.27392904025607
 30
0.0
  0
VERTEX
  5
99
330
8D
100
AcDbEntity
  8
Default
100
AcDbVertex
100
AcDb2dVertex
 10
265.5017740944417
 20
28.16123782233344
 30
0.0
  0
VERTEX
  5
9A
330
8D
100
AcDbEntity
  8
Default
100
AcDbVertex
100
AcDb2dVertex
 10
265.6984578255208
 20
28.0664989453125
 30
0.0
  0
VERTEX
  5
9B
330
8D
100
AcDbEntity
  8
Default
100
AcDbVertex
100
AcDb2dVertex
 10
265.9051802203369
 20
27.99084376132541
 30
0.0
  0
VERTEX
  5
9C
330
8D
100
AcDbEntity
  8
Default
100
AcDbVertex
100
AcDb2dVertex
 10
266.1208103401692
 20
27.93540362250434
 30
0.0
  0
VERTEX
  5
9D
330
8D
100
AcDbEntity
  8
Default
100
AcDbVertex
100
AcDb2dVertex
 10
266.3442172462971
 20
27.90130988098144
 30
0.0
  0
VERTEX
  5
9E
330
8D
100
AcDbEntity
  8
Default
100
AcDbVertex
100
AcDb2dVertex
 10
266.57427
 20
27.88969388888889
 30
0.0
  0
SEQEND
  5
9F
330
8D
100
AcDbEntity
  8
Default
  0
POLYLINE
  5
A0
330
1F
100
AcDbEntity
  8
Default
100
AcDb2dPolyline
 66
     1
 10
0.0
 20
0.0
 30
0.0
  0
VERTEX
  5
A1
330
A0
100
AcDbEntity
  8
Default
100
AcDbVertex
100
AcDb2dVertex
 10
287.8242980555555
 20
141.8892330555555
 30
0.0
  0
VERTEX
  5
A2
330
A0
100
AcDbEntity
  8
Default
100
AcDbVertex
100
AcDb2dVertex
 10
288.7382747222222
 20
142.8035625
 30
0.0
  0
SEQEND
  5
A3
330
A0
100
AcDbEntity
  8
Default
  0
POLYLINE
  5
A4
330
1F
100
AcDbEntity
  8
Default
100
AcDb2dPolyline
 66
     1
 10
0.0
 20
0.0
 30
0.0
  0
VERTEX
  5
A5
330
A4
100
AcDbEntity
  8
Default
100
AcDbVertex
100
AcDb2dVertex
 10
288.7382747222222
 20
142.8035625
 30
0.0
  0
VERTEX
  5
A6
330
A4
100
AcDbEntity
  8
Default
100
AcDbVertex
100
AcDb2dVertex
 10
289.0515446961805
 20
143.0696853776042
 30
0.0
  0
VERTEX
  5
A7
330
A4
100
AcDbEntity
  8
Default
100
AcDbVertex
100
AcDb2dVertex
 10
289.2133353374566
 20
143.1708101611328
 30
0.0
  0
VERTEX
  5
A8
330
A4
100
AcDbEntity
  8
Default
100
AcDbVertex
100
AcDb2dVertex
 10
289.3811857638889
 20
143.2517269791666
 30
0.0
  0
VERTEX
  5
A9
330
A4
100
AcDbEntity
  8
Default
100
AcDbVertex
100
AcDb2dVertex
 10
289.5570629871962
 20
143.3132481852213
 30
0.0
  0
VERTEX
  5
AA
330
A4
100
AcDbEntity
  8
Default
100
AcDbVertex
100
AcDb2dVertex
 10
289.7429340190972
 20
143.3561861328125
 30
0.0
  0
VERTEX
  5
AB
330
A4
100
AcDbEntity
  8
Default
100
AcDbVertex
100
AcDb2dVertex
 10
290.1525255555555
 20
143.3895616666667
 30
0.0
  0
SEQEND
  5
AC
330
A4
100
AcDbEntity
  8
Default
  0
POLYLINE
  5
AD
330
1F
100
AcDbEntity
  8
Default
100
AcDb2dPolyline
 66
     1
 10
0.0
 20
0.0
 30
0.0
  0
VERTEX
  5
AE
330
AD
100
AcDbEntity
  8
Default
100
AcDbVertex
100
AcDb2dVertex
 10
290.1525255555555
 20
143.3895616666667
 30
0.0
  0
VERTEX
  5
AF
330
AD
100
AcDbEntity
  8
Default
100
AcDbVertex
100
AcDb2dVertex
 10
301.4958127777778
 20
143.3895616666667
 30
0.0
  0
SEQEND
  5
B0
330
AD
100
AcDbEntity
  8
Default
  0
POLYLINE
  5
B1
330
1F
100
AcDbEntity
  8
Default
100
AcDb2dPolyline
 66
     1
 10
0.0
 20
0.0
 30
0.0
  0
VERTEX
  5
B2
330
B1
100
AcDbEntity
  8
Default
100
AcDbVertex
100
AcDb2dVertex
 10
301.4958127777778
 20
143.3895616666667
 30
0.0
  0
VERTEX
  5
B3
330
B1
100
AcDbEntity
  8
Default
100
AcDbVertex
100
AcDb2dVertex
 10
301.9054335286458
 20
143.3561861328125
 30
0.0
  0
VERTEX
  5
B4
330
B1
100
AcDbEntity
  8
Default
100
AcDbVertex
100
AcDb2dVertex
 10
302.0913416986762
 20
143.3132481852213
 30
0.0
  0
VERTEX
  5
B5
330
B1
100
AcDbEntity
  8
Default
100
AcDbVertex
100
AcDb2dVertex
 10
302.2672539930555
 20
143.2517269791666
 30
0.0
  0
VERTEX
  5
B6
330
B1
100
AcDbEntity
  8
Default
100
AcDbVertex
100
AcDb2dVertex
 10
302.4351246077473
 20
143.1708101611328
 30
0.0
  0
VERTEX
  5
B7
330
B1
100
AcDbEntity
  8
Default
100
AcDbVertex
100
AcDb2dVertex
 10
302.5969077387152
 20
143.0696853776042
 30
0.0
  0
VERTEX
  5
B8
330
B1
100
AcDbEntity
  8
Default
100
AcDbVertex
100
AcDb2dVertex
 10
302.9100283333333
 20
142.8035625
 30
0.0
  0
SEQEND
  5
B9
330
B1
100
AcDbEntity
  8
Default
  0
POLYLINE
  5
BA
330
1F
100
AcDbEntity
  8
Default
100
AcDb2dPolyline
 66
     1
 10
0.0
 20
0.0
 30
0.0
  0
VERTEX
  5
BB
330
BA
100
AcDbEntity
  8
Default
100
AcDbVertex
100
AcDb2dVertex
 10
302.9100283333333
 20
142.8035625
 30
0.0
  0
VERTEX
  5
BC
330
BA
100
AcDbEntity
  8
Default
100
AcDbVertex
100
AcDb2dVertex
 10
303.8243224999999
 20
141.8892330555555
 30
0.0
  0
SEQEND
  5
BD
330
BA
100
AcDbEntity
  8
Default
  0
POLYLINE
  5
BE
330
1F
100
AcDbEntity
  8
Default
100
AcDb2dPolyline
 66
     1
 10
0.0
 20
0.0
 30
0.0
  0
VERTEX
  5
BF
330
BE
100
AcDbEntity
  8
Default
100
AcDbVertex
100
AcDb2dVertex
 10
314.8241805555555
 20
141.8892330555555
 30
0.0
  0
VERTEX
  5
C0
330
BE
100
AcDbEntity
  8
Default
100
AcDbVertex
100
AcDb2dVertex
 10
315.73851
 20
142.8035625
 30
0.0
  0
SEQEND
  5
C1
330
BE
100
AcDbEntity
  8
Default
  0
POLYLINE
  5
C2
330
1F
100
AcDbEntity
  8
Default
100
AcDb2dPolyline
 66
     1
 10
0.0
 20
0.0
 30
0.0
  0
VERTEX
  5
C3
330
C2
100
AcDbEntity
  8
Default
100
AcDbVertex
100
AcDb2dVertex
 10
315.73851
 20
142.8035625
 30
0.0
  0
VERTEX
  5
C4
330
C2
100
AcDbEntity
  8
Default
100
AcDbVertex
100
AcDb2dVertex
 10
316.051779422743
 20
143.0696853776042
 30
0.0
  0
VERTEX
  5
C5
330
C2
100
AcDbEntity
  8
Default
100
AcDbVertex
100
AcDb2dVertex
 10
316.2135687548828
 20
143.1708101611328
 30
0.0
  0
VERTEX
  5
C6
330
C2
100
AcDbEntity
  8
Default
100
AcDbVertex
100
AcDb2dVertex
 10
316.3814166319444
 20
143.2517269791666
 30
0.0
  0
VERTEX
  5
C7
330
C2
100
AcDbEntity
  8
Default
100
AcDbVertex
100
AcDb2dVertex
 10
316.5572896522352
 20
143.3132481852213
 30
0.0
  0
VERTEX
  5
C8
330
C2
100
AcDbEntity
  8
Default
100
AcDbVertex
100
AcDb2dVertex
 10
316.7431544140625
 20
143.3561861328125
 30
0.0
  0
VERTEX
  5
C9
330
C2
100
AcDbEntity
  8
Default
100
AcDbVertex
100
AcDb2dVertex
 10
317.1527255555555
 20
143.3895616666667
 30
0.0
  0
SEQEND
  5
CA
330
C2
100
AcDbEntity
  8
Default
  0
POLYLINE
  5
CB
330
1F
100
AcDbEntity
  8
Default
100
AcDb2dPolyline
 66
     1
 10
0.0
 20
0.0
 30
0.0
  0
VERTEX
  5
CC
330
CB
100
AcDbEntity
  8
Default
100
AcDbVertex
100
AcDb2dVertex
 10
317.1527255555555
 20
143.3895616666667
 30
0.0
  0
VERTEX
  5
CD
330
CB
100
AcDbEntity
  8
Default
100
AcDbVertex
100
AcDb2dVertex
 10
328.4960480555555
 20
143.3895616666667
 30
0.0
  0
SEQEND
  5
CE
330
CB
100
AcDbEntity
  8
Default
  0
POLYLINE
  5
CF
330
1F
100
AcDbEntity
  8
Default
100
AcDb2dPolyline
 66
     1
 10
0.0
 20
0.0
 30
0.0
  0
VERTEX
  5
D0
330
CF
100
AcDbEntity
  8
Default
100
AcDbVertex
100
AcDb2dVertex
 10
328.4960480555555
 20
143.3895616666667
 30
0.0
  0
VERTEX
  5
D1
330
CF
100
AcDbEntity
  8
Default
100
AcDbVertex
100
AcDb2dVertex
 10
328.9056136848958
 20
143.3561861328125
 30
0.0
  0
VERTEX
  5
D2
330
CF
100
AcDbEntity
  8
Default
100
AcDbVertex
100
AcDb2dVertex
 10
329.0914653553601
 20
143.3132481852213
 30
0.0
  0
VERTEX
  5
D3
330
CF
100
AcDbEntity
  8
Default
100
AcDbVertex
100
AcDb2dVertex
 10
329.2673128819443
 20
143.2517269791666
 30
0.0
  0
VERTEX
  5
D4
330
CF
100
AcDbEntity
  8
Default
100
AcDbVertex
100
AcDb2dVertex
 10
329.435118728841
 20
143.1708101611328
 30
0.0
  0
VERTEX
  5
D5
330
CF
100
AcDbEntity
  8
Default
100
AcDbVertex
100
AcDb2dVertex
 10
329.596845360243
 20
143.0696853776042
 30
0.0
  0
VERTEX
  5
D6
330
CF
100
AcDbEntity
  8
Default
100
AcDbVertex
100
AcDb2dVertex
 10
329.9099108333333
 20
142.8035625
 30
0.0
  0
SEQEND
  5
D7
330
CF
100
AcDbEntity
  8
Default
  0
POLYLINE
  5
D8
330
1F
100
AcDbEntity
  8
Default
100
AcDb2dPolyline
 66
     1
 10
0.0
 20
0.0
 30
0.0
  0
VERTEX
  5
D9
330
D8
100
AcDbEntity
  8
Default
100
AcDbVertex
100
AcDb2dVertex
 10
329.9099108333333
 20
142.8035625
 30
0.0
  0
VERTEX
  5
DA
330
D8
100
AcDbEntity
  8
Default
100
AcDbVertex
100
AcDb2dVertex
 10
330.8242755555555
 20
141.8892330555555
 30
0.0
  0
SEQEND
  5
DB
330
D8
100
AcDbEntity
  8
Default
  0
POLYLINE
  5
DC
330
1F
100
AcDbEntity
  8
Default
100
AcDb2dPolyline
 66
     1
 10
0.0
 20
0.0
 30
0.0
  0
VERTEX
  5
DD
330
DC
100
AcDbEntity
  8
Default
100
AcDbVertex
100
AcDb2dVertex
 10
287.8242980555555
 20
18.88973305555555
 30
0.0
  0
VERTEX
  5
DE
330
DC
100
AcDbEntity
  8
Default
100
AcDbVertex
100
AcDb2dVertex
 10
288.7382747222222
 20
17.97540361111111
 30
0.0
  0
SEQEND
  5
DF
330
DC
100
AcDbEntity
  8
Default
  0
POLYLINE
  5
E0
330
1F
100
AcDbEntity
  8
Default
100
AcDb2dPolyline
 66
     1
 10
0.0
 20
0.0
 30
0.0
  0
VERTEX
  5
E1
330
E0
100
AcDbEntity
  8
Default
100
AcDbVertex
100
AcDb2dVertex
 10
288.7382747222222
 20
17.97540361111111
 30
0.0
  0
VERTEX
  5
E2
330
E0
100
AcDbEntity
  8
Default
100
AcDbVertex
100
AcDb2dVertex
 10
289.0515446961805
 20
17.70927522135417
 30
0.0
  0
VERTEX
  5
E3
330
E0
100
AcDbEntity
  8
Default
100
AcDbVertex
100
AcDb2dVertex
 10
289.2133353374566
 20
17.60814478786892
 30
0.0
  0
VERTEX
  5
E4
330
E0
100
AcDbEntity
  8
Default
100
AcDbVertex
100
AcDb2dVertex
 10
289.3811857638889
 20
17.52722149305555
 30
0.0
  0
VERTEX
  5
E5
330
E0
100
AcDbEntity
  8
Default
100
AcDbVertex
100
AcDb2dVertex
 10
289.5570629871962
 20
17.46569381022135
 30
0.0
  0
VERTEX
  5
E6
330
E0
100
AcDbEntity
  8
Default
100
AcDbVertex
100
AcDb2dVertex
 10
289.7429340190972
 20
17.42275021267361
 30
0.0
  0
VERTEX
  5
E7
330
E0
100
AcDbEntity
  8
Default
100
AcDbVertex
100
AcDb2dVertex
 10
290.1525255555555
 20
17.38936916666666
 30
0.0
  0
SEQEND
  5
E8
330
E0
100
AcDbEntity
  8
Default
  0
POLYLINE
  5
E9
330
1F
100
AcDbEntity
  8
Default
100
AcDb2dPolyline
 66
     1
 10
0.0
 20
0.0
 30
0.0
  0
VERTEX
  5
EA
330
E9
100
AcDbEntity
  8
Default
100
AcDbVertex
100
AcDb2dVertex
 10
290.1525255555555
 20
17.38936916666666
 30
0.0
  0
VERTEX
  5
EB
330
E9
100
AcDbEntity
  8
Default
100
AcDbVertex
100
AcDb2dVertex
 10
301.4958127777778
 20
17.38936916666666
 30
0.0
  0
SEQEND
  5
EC
330
E9
100
AcDbEntity
  8
Default
  0
POLYLINE
  5
ED
330
1F
100
AcDbEntity
  8
Default
100
AcDb2dPolyline
 66
     1
 10
0.0
 20
0.0
 30
0.0
  0
VERTEX
  5
EE
330
ED
100
AcDbEntity
  8
Default
100
AcDbVertex
100
AcDb2dVertex
 10
301.4958127777778
 20
17.38936916666666
 30
0.0
  0
VERTEX
  5
EF
330
ED
100
AcDbEntity
  8
Default
100
AcDbVertex
100
AcDb2dVertex
 10
301.9054335286458
 20
17.42275021267361
 30
0.0
  0
VERTEX
  5
F0
330
ED
100
AcDbEntity
  8
Default
100
AcDbVertex
100
AcDb2dVertex
 10
302.0913416986762
 20
17.46569381022135
 30
0.0
  0
VERTEX
  5
F1
330
ED
100
AcDbEntity
  8
Default
100
AcDbVertex
100
AcDb2dVertex
 10
302.2672539930555
 20
17.52722149305555
 30
0.0
  0
VERTEX
  5
F2
330
ED
100
AcDbEntity
  8
Default
100
AcDbVertex
100
AcDb2dVertex
 10
302.4351246077473
 20
17.60814478786892
 30
0.0
  0
VERTEX
  5
F3
330
ED
100
AcDbEntity
  8
Default
100
AcDbVertex
100
AcDb2dVertex
 10
302.5969077387152
 20
17.70927522135417
 30
0.0
  0
VERTEX
  5
F4
330
ED
100
AcDbEntity
  8
Default
100
AcDbVertex
100
AcDb2dVertex
 10
302.9100283333333
 20
17.97540361111111
 30
0.0
  0
SEQEND
  5
F5
330
ED
100
AcDbEntity
  8
Default
  0
POLYLINE
  5
F6
330
1F
100
AcDbEntity
  8
Default
100
AcDb2dPolyline
 66
     1
 10
0.0
 20
0.0
 30
0.0
  0
VERTEX
  5
F7
330
F6
100
AcDbEntity
  8
Default
100
AcDbVertex
100
AcDb2dVertex
 10
302.9100283333333
 20
17.97540361111111
 30
0.0
  0
VERTEX
  5
F8
330
F6
100
AcDbEntity
  8
Default
100
AcDbVertex
100
AcDb2dVertex
 10
303.8243224999999
 20
18.88973305555555
 30
0.0
  0
SEQEND
  5
F9
330
F6
100
AcDbEntity
  8
Default
  0
POLYLINE
  5
FA
330
1F
100
AcDbEntity
  8
Default
100
AcDb2dPolyline
 66
     1
 10
0.0
 20
0.0
 30
0.0
  0
VERTEX
  5
FB
330
FA
100
AcDbEntity
  8
Default
100
AcDbVertex
100
AcDb2dVertex
 10
314.8241805555555
 20
18.88973305555555
 30
0.0
  0
VERTEX
  5
FC
330
FA
100
AcDbEntity
  8
Default
100
AcDbVertex
100
AcDb2dVertex
 10
315.73851
 20
17.97540361111111
 30
0.0
  0
SEQEND
  5
FD
330
FA
100
AcDbEntity
  8
Default
  0
POLYLINE
  5
FE
330
1F
100
AcDbEntity
  8
Default
100
AcDb2dPolyline
 66
     1
 10
0.0
 20
0.0
 30
0.0
  0
VERTEX
  5
FF
330
FE
100
AcDbEntity
  8
Default
100
AcDbVertex
100
AcDb2dVertex
 10
315.73851
 20
17.97540361111111
 30
0.0
  0
VERTEX
  5
100
330
FE
100
AcDbEntity
  8
Default
100
AcDbVertex
100
AcDb2dVertex
 10
316.051779422743
 20
17.70927522135417
 30
0.0
  0
VERTEX
  5
101
330
FE
100
AcDbEntity
  8
Default
100
AcDbVertex
100
AcDb2dVertex
 10
316.2135687548828
 20
17.60814478786892
 30
0.0
  0
VERTEX
  5
102
330
FE
100
AcDbEntity
  8
Default
100
AcDbVertex
100
AcDb2dVertex
 10
316.3814166319444
 20
17.52722149305555
 30
0.0
  0
VERTEX
  5
103
330
FE
100
AcDbEntity
  8
Default
100
AcDbVertex
100
AcDb2dVertex
 10
316.5572896522352
 20
17.46569381022135
 30
0.0
  0
VERTEX
  5
104
330
FE
100
AcDbEntity
  8
Default
100
AcDbVertex
100
AcDb2dVertex
 10
316.7431544140625
 20
17.42275021267361
 30
0.0
  0
VERTEX
  5
105
330
FE
100
AcDbEntity
  8
Default
100
AcDbVertex
100
AcDb2dVertex
 10
317.1527255555555
 20
17.38936916666666
 30
0.0
  0
SEQEND
  5
106
330
FE
100
AcDbEntity
  8
Default
  0
POLYLINE
  5
107
330
1F
100
AcDbEntity
  8
Default
100
AcDb2dPolyline
 66
     1
 10
0.0
 20
0.0
 30
0.0
  0
VERTEX
  5
108
330
107
100
AcDbEntity
  8
Default
100
AcDbVertex
100
AcDb2dVertex
 10
317.1527255555555
 20
17.38936916666666
 30
0.0
  0
VERTEX
  5
109
330
107
100
AcDbEntity
  8
Default
100
AcDbVertex
100
AcDb2dVertex
 10
328.4960480555555
 20
17.38936916666666
 30
0.0
  0
SEQEND
  5
10A
330
107
100
AcDbEntity
  8
Default
  0
POLYLINE
  5
10B
330
1F
100
AcDbEntity
  8
Default
100
AcDb2dPolyline
 66
     1
 10
0.0
 20
0.0
 30
0.0
  0
VERTEX
  5
10C
330
10B
100
AcDbEntity
  8
Default
100
AcDbVertex
100
AcDb2dVertex
 10
328.4960480555555
 20
17.38936916666666
 30
0.0
  0
VERTEX
  5
10D
330
10B
100
AcDbEntity
  8
Default
100
AcDbVertex
100
AcDb2dVertex
 10
328.9056136848958
 20
17.42275021267361
 30
0.0
  0
VERTEX
  5
10E
330
10B
100
AcDbEntity
  8
Default
100
AcDbVertex
100
AcDb2dVertex
 10
329.0914653553601
 20
17.46569381022135
 30
0.0
  0
VERTEX
  5
10F
330
10B
100
AcDbEntity
  8
Default
100
AcDbVertex
100
AcDb2dVertex
 10
329.2673128819443
 20
17.52722149305555
 30
0.0
  0
VERTEX
  5
110
330
10B
100
AcDbEntity
  8
Default
100
AcDbVertex
100
AcDb2dVertex
 10
329.435118728841
 20
17.60814478786892
 30
0.0
  0
VERTEX
  5
111
330
10B
100
AcDbEntity
  8
Default
100
AcDbVertex
100
AcDb2dVertex
 10
329.596845360243
 20
17.70927522135417
 30
0.0
  0
VERTEX
  5
112
330
10B
100
AcDbEntity
  8
Default
100
AcDbVertex
100
AcDb2dVertex
 10
329.9099108333333
 20
17.97540361111111
 30
0.0
  0
SEQEND
  5
113
330
10B
100
AcDbEntity
  8
Default
  0
POLYLINE
  5
114
330
1F
100
AcDbEntity
  8
Default
100
AcDb2dPolyline
 66
     1
 10
0.0
 20
0.0
 30
0.0
  0
VERTEX
  5
115
330
114
100
AcDbEntity
  8
Default
100
AcDbVertex
100
AcDb2dVertex
 10
329.9099108333333
 20
17.97540361111111
 30
0.0
  0
VERTEX
  5
116
330
114
100
AcDbEntity
  8
Default
100
AcDbVertex
100
AcDb2dVertex
 10
330.8242755555555
 20
18.88973305555555
 30
0.0
  0
SEQEND
  5
117
330
114
100
AcDbEntity
  8
Default
  0
POLYLINE
  5
118
330
1F
100
AcDbEntity
  8
Default
100
AcDb2dPolyline
 66
     1
 10
0.0
 20
0.0
 30
0.0
  0
VERTEX
  5
119
330
118
100
AcDbEntity
  8
Default
100
AcDbVertex
100
AcDb2dVertex
 10
338.8241113888889
 20
18.88973305555555
 30
0.0
  0
VERTEX
  5
11A
330
118
100
AcDbEntity
  8
Default
100
AcDbVertex
100
AcDb2dVertex
 10
339.7384408333333
 20
17.97540361111111
 30
0.0
  0
SEQEND
  5
11B
330
118
100
AcDbEntity
  8
Default
  0
POLYLINE
  5
11C
330
1F
100
AcDbEntity
  8
Default
100
AcDb2dPolyline
 66
     1
 10
0.0
 20
0.0
 30
0.0
  0
VERTEX
  5
11D
330
11C
100
AcDbEntity
  8
Default
100
AcDbVertex
100
AcDb2dVertex
 10
339.7384408333333
 20
17.97540361111111
 30
0.0
  0
VERTEX
  5
11E
330
11C
100
AcDbEntity
  8
Default
100
AcDbVertex
100
AcDb2dVertex
 10
340.0516898611111
 20
17.70927522135417
 30
0.0
  0
VERTEX
  5
11F
330
11C
100
AcDbEntity
  8
Default
100
AcDbVertex
100
AcDb2dVertex
 10
340.2134729231771
 20
17.60814478786892
 30
0.0
  0
VERTEX
  5
120
330
11C
100
AcDbEntity
  8
Default
100
AcDbVertex
100
AcDb2dVertex
 10
340.3813165972222
 20
17.52722149305555
 30
0.0
  0
VERTEX
  5
121
330
11C
100
AcDbEntity
  8
Default
100
AcDbVertex
100
AcDb2dVertex
 10
340.5571870681424
 20
17.46569381022135
 30
0.0
  0
VERTEX
  5
122
330
11C
100
AcDbEntity
  8
Default
100
AcDbVertex
100
AcDb2dVertex
 10
340.7430505208333
 20
17.42275021267361
 30
0.0
  0
VERTEX
  5
123
330
11C
100
AcDbEntity
  8
Default
100
AcDbVertex
100
AcDb2dVertex
 10
341.152621111111
 20
17.38936916666666
 30
0.0
  0
SEQEND
  5
124
330
11C
100
AcDbEntity
  8
Default
  0
POLYLINE
  5
125
330
1F
100
AcDbEntity
  8
Default
100
AcDb2dPolyline
 66
     1
 10
0.0
 20
0.0
 30
0.0
  0
VERTEX
  5
126
330
125
100
AcDbEntity
  8
Default
100
AcDbVertex
100
AcDb2dVertex
 10
341.152621111111
 20
17.38936916666666
 30
0.0
  0
VERTEX
  5
127
330
125
100
AcDbEntity
  8
Default
100
AcDbVertex
100
AcDb2dVertex
 10
352.4959436111111
 20
17.38936916666666
 30
0.0
  0
SEQEND
  5
128
330
125
100
AcDbEntity
  8
Default
  0
POLYLINE
  5
129
330
1F
100
AcDbEntity
  8
Default
100
AcDb2dPolyline
 66
     1
 10
0.0
 20
0.0
 30
0.0
  0
VERTEX
  5
12A
330
129
100
AcDbEntity
  8
Default
100
AcDbVertex
100
AcDb2dVertex
 10
352.4959436111111
 20
17.38936916666666
 30
0.0
  0
VERTEX
  5
12B
330
129
100
AcDbEntity
  8
Default
100
AcDbVertex
100
AcDb2dVertex
 10
352.9055147526041
 20
17.42275021267361
 30
0.0
  0
VERTEX
  5
12C
330
129
100
AcDbEntity
  8
Default
100
AcDbVertex
100
AcDb2dVertex
 10
353.0913720730251
 20
17.46569381022135
 30
0.0
  0
VERTEX
  5
12D
330
129
100
AcDbEntity
  8
Default
100
AcDbVertex
100
AcDb2dVertex
 10
353.2672260763889
 20
17.52722149305555
 30
0.0
  0
VERTEX
  5
12E
330
129
100
AcDbEntity
  8
Default
100
AcDbVertex
100
AcDb2dVertex
 10
353.4350384000651
 20
17.60814478786892
 30
0.0
  0
VERTEX
  5
12F
330
129
100
AcDbEntity
  8
Default
100
AcDbVertex
100
AcDb2dVertex
 10
353.5967706814235
 20
17.70927522135417
 30
0.0
  0
VERTEX
  5
130
330
129
100
AcDbEntity
  8
Default
100
AcDbVertex
100
AcDb2dVertex
 10
353.9098416666666
 20
17.97540361111111
 30
0.0
  0
SEQEND
  5
131
330
129
100
AcDbEntity
  8
Default
  0
POLYLINE
  5
132
330
1F
100
AcDbEntity
  8
Default
100
AcDb2dPolyline
 66
     1
 10
0.0
 20
0.0
 30
0.0
  0
VERTEX
  5
133
330
132
100
AcDbEntity
  8
Default
100
AcDbVertex
100
AcDb2dVertex
 10
353.9098416666666
 20
17.97540361111111
 30
0.0
  0
VERTEX
  5
134
330
132
100
AcDbEntity
  8
Default
100
AcDbVertex
100
AcDb2dVertex
 10
354.8241711111111
 20
18.88973305555555
 30
0.0
  0
SEQEND
  5
135
330
132
100
AcDbEntity
  8
Default
  0
POLYLINE
  5
136
330
1F
100
AcDbEntity
  8
Default
100
AcDb2dPolyline
 66
     1
 10
0.0
 20
0.0
 30
0.0
  0
VERTEX
  5
137
330
136
100
AcDbEntity
  8
Default
100
AcDbVertex
100
AcDb2dVertex
 10
362.8243949999999
 20
18.88973305555555
 30
0.0
  0
VERTEX
  5
138
330
136
100
AcDbEntity
  8
Default
100
AcDbVertex
100
AcDb2dVertex
 10
363.7386891666667
 20
17.97540361111111
 30
0.0
  0
SEQEND
  5
139
330
136
100
AcDbEntity
  8
Default
  0
POLYLINE
  5
13A
330
1F
100
AcDbEntity
  8
Default
100
AcDb2dPolyline
 66
     1
 10
0.0
 20
0.0
 30
0.0
  0
VERTEX
  5
13B
330
13A
100
AcDbEntity
  8
Default
100
AcDbVertex
100
AcDb2dVertex
 10
363.7386891666667
 20
17.97540361111111
 30
0.0
  0
VERTEX
  5
13C
330
13A
100
AcDbEntity
  8
Default
100
AcDbVertex
100
AcDb2dVertex
 10
364.0517546397569
 20
17.70927522135417
 30
0.0
  0
VERTEX
  5
13D
330
13A
100
AcDbEntity
  8
Default
100
AcDbVertex
100
AcDb2dVertex
 10
364.2134812711589
 20
17.60814478786892
 30
0.0
  0
VERTEX
  5
13E
330
13A
100
AcDbEntity
  8
Default
100
AcDbVertex
100
AcDb2dVertex
 10
364.3812871180555
 20
17.52722149305555
 30
0.0
  0
VERTEX
  5
13F
330
13A
100
AcDbEntity
  8
Default
100
AcDbVertex
100
AcDb2dVertex
 10
364.5571346446397
 20
17.46569381022135
 30
0.0
  0
VERTEX
  5
140
330
13A
100
AcDbEntity
  8
Default
100
AcDbVertex
100
AcDb2dVertex
 10
364.7429863151041
 20
17.42275021267361
 30
0.0
  0
VERTEX
  5
141
330
13A
100
AcDbEntity
  8
Default
100
AcDbVertex
100
AcDb2dVertex
 10
365.1525519444444
 20
17.38936916666666
 30
0.0
  0
SEQEND
  5
142
330
13A
100
AcDbEntity
  8
Default
  0
POLYLINE
  5
143
330
1F
100
AcDbEntity
  8
Default
100
AcDb2dPolyline
 66
     1
 10
0.0
 20
0.0
 30
0.0
  0
VERTEX
  5
144
330
143
100
AcDbEntity
  8
Default
100
AcDbVertex
100
AcDb2dVertex
 10
365.1525519444444
 20
17.38936916666666
 30
0.0
  0
VERTEX
  5
145
330
143
100
AcDbEntity
  8
Default
100
AcDbVertex
100
AcDb2dVertex
 10
376.4959097222222
 20
17.38936916666666
 30
0.0
  0
SEQEND
  5
146
330
143
100
AcDbEntity
  8
Default
  0
POLYLINE
  5
147
330
1F
100
AcDbEntity
  8
Default
100
AcDb2dPolyline
 66
     1
 10
0.0
 20
0.0
 30
0.0
  0
VERTEX
  5
148
330
147
100
AcDbEntity
  8
Default
100
AcDbVertex
100
AcDb2dVertex
 10
376.4959097222222
 20
17.38936916666666
 30
0.0
  0
VERTEX
  5
149
330
147
100
AcDbEntity
  8
Default
100
AcDbVertex
100
AcDb2dVertex
 10
376.9054808637152
 20
17.42275021267361
 30
0.0
  0
VERTEX
  5
14A
330
147
100
AcDbEntity
  8
Default
100
AcDbVertex
100
AcDb2dVertex
 10
377.0913456255425
 20
17.46569381022135
 30
0.0
  0
VERTEX
  5
14B
330
147
100
AcDbEntity
  8
Default
100
AcDbVertex
100
AcDb2dVertex
 10
377.2672186458333
 20
17.52722149305555
 30
0.0
  0
VERTEX
  5
14C
330
147
100
AcDbEntity
  8
Default
100
AcDbVertex
100
AcDb2dVertex
 10
377.435066522895
 20
17.60814478786892
 30
0.0
  0
VERTEX
  5
14D
330
147
100
AcDbEntity
  8
Default
100
AcDbVertex
100
AcDb2dVertex
 10
377.5968558550347
 20
17.70927522135417
 30
0.0
  0
VERTEX
  5
14E
330
147
100
AcDbEntity
  8
Default
100
AcDbVertex
100
AcDb2dVertex
 10
377.9101252777777
 20
17.97540361111111
 30
0.0
  0
SEQEND
  5
14F
330
147
100
AcDbEntity
  8
Default
  0
POLYLINE
  5
150
330
1F
100
AcDbEntity
  8
Default
100
AcDb2dPolyline
 66
     1
 10
0.0
 20
0.0
 30
0.0
  0
VERTEX
  5
151
330
150
100
AcDbEntity
  8
Default
100
AcDbVertex
100
AcDb2dVertex
 10
377.9101252777777
 20
17.97540361111111
 30
0.0
  0
VERTEX
  5
152
330
150
100
AcDbEntity
  8
Default
100
AcDbVertex
100
AcDb2dVertex
 10
378.8241019444445
 20
18.88973305555555
 30
0.0
  0
SEQEND
  5
153
330
150
100
AcDbEntity
  8
Default
  0
POLYLINE
  5
154
330
1F
100
AcDbEntity
  8
Default
100
AcDb2dPolyline
 66
     1
 10
0.0
 20
0.0
 30
0.0
  0
VERTEX
  5
155
330
154
100
AcDbEntity
  8
Default
100
AcDbVertex
100
AcDb2dVertex
 10
263.8243672222222
 20
18.88973305555555
 30
0.0
  0
VERTEX
  5
156
330
154
100
AcDbEntity
  8
Default
100
AcDbVertex
100
AcDb2dVertex
 10
264.7383438888888
 20
17.97540361111111
 30
0.0
  0
SEQEND
  5
157
330
154
100
AcDbEntity
  8
Default
  0
POLYLINE
  5
158
330
1F
100
AcDbEntity
  8
Default
100
AcDb2dPolyline
 66
     1
 10
0.0
 20
0.0
 30
0.0
  0
VERTEX
  5
159
330
158
100
AcDbEntity
  8
Default
100
AcDbVertex
100
AcDb2dVertex
 10
264.7383438888888
 20
17.97540361111111
 30
0.0
  0
VERTEX
  5
15A
330
158
100
AcDbEntity
  8
Default
100
AcDbVertex
100
AcDb2dVertex
 10
265.0516684331596
 20
17.70927522135417
 30
0.0
  0
VERTEX
  5
15B
330
158
100
AcDbEntity
  8
Default
100
AcDbVertex
100
AcDb2dVertex
 10
265.2135142648654
 20
17.60814478786892
 30
0.0
  0
VERTEX
  5
15C
330
158
100
AcDbEntity
  8
Default
100
AcDbVertex
100
AcDb2dVertex
 10
265.3814269097222
 20
17.52722149305555
 30
0.0
  0
VERTEX
  5
15D
330
158
100
AcDbEntity
  8
Default
100
AcDbVertex
100
AcDb2dVertex
 10
265.5573646978081
 20
17.46569381022135
 30
0.0
  0
VERTEX
  5
15E
330
158
100
AcDbEntity
  8
Default
100
AcDbVertex
100
AcDb2dVertex
 10
265.7432859592014
 20
17.42275021267361
 30
0.0
  0
VERTEX
  5
15F
330
158
100
AcDbEntity
  8
Default
100
AcDbVertex
100
AcDb2dVertex
 10
266.1529122222222
 20
17.38936916666666
 30
0.0
  0
SEQEND
  5
160
330
158
100
AcDbEntity
  8
Default
  0
POLYLINE
  5
161
330
1F
100
AcDbEntity
  8
Default
100
AcDb2dPolyline
 66
     1
 10
0.0
 20
0.0
 30
0.0
  0
VERTEX
  5
162
330
161
100
AcDbEntity
  8
Default
100
AcDbVertex
100
AcDb2dVertex
 10
266.1529122222222
 20
17.38936916666666
 30
0.0
  0
VERTEX
  5
163
330
161
100
AcDbEntity
  8
Default
100
AcDbVertex
100
AcDb2dVertex
 10
277.4959172222222
 20
17.38936916666666
 30
0.0
  0
SEQEND
  5
164
330
161
100
AcDbEntity
  8
Default
  0
POLYLINE
  5
165
330
1F
100
AcDbEntity
  8
Default
100
AcDb2dPolyline
 66
     1
 10
0.0
 20
0.0
 30
0.0
  0
VERTEX
  5
166
330
165
100
AcDbEntity
  8
Default
100
AcDbVertex
100
AcDb2dVertex
 10
277.4959172222222
 20
17.38936916666666
 30
0.0
  0
VERTEX
  5
167
330
165
100
AcDbEntity
  8
Default
100
AcDbVertex
100
AcDb2dVertex
 10
277.90546796875
 20
17.42275021267361
 30
0.0
  0
VERTEX
  5
168
330
165
100
AcDbEntity
  8
Default
100
AcDbVertex
100
AcDb2dVertex
 10
278.0913264605035
 20
17.46569381022135
 30
0.0
  0
VERTEX
  5
169
330
165
100
AcDbEntity
  8
Default
100
AcDbVertex
100
AcDb2dVertex
 10
278.2671952777778
 20
17.52722149305555
 30
0.0
  0
VERTEX
  5
16A
330
165
100
AcDbEntity
  8
Default
100
AcDbVertex
100
AcDb2dVertex
 10
278.4350406054688
 20
17.60814478786892
 30
0.0
  0
VERTEX
  5
16B
330
165
100
AcDbEntity
  8
Default
100
AcDbVertex
100
AcDb2dVertex
 10
278.5968286284722
 20
17.70927522135417
 30
0.0
  0
VERTEX
  5
16C
330
165
100
AcDbEntity
  8
Default
100
AcDbVertex
100
AcDb2dVertex
 10
278.9100975
 20
17.97540361111111
 30
0.0
  0
SEQEND
  5
16D
330
165
100
AcDbEntity
  8
Default
  0
POLYLINE
  5
16E
330
1F
100
AcDbEntity
  8
Default
100
AcDb2dPolyline
 66
     1
 10
0.0
 20
0.0
 30
0.0
  0
VERTEX
  5
16F
330
16E
100
AcDbEntity
  8
Default
100
AcDbVertex
100
AcDb2dVertex
 10
278.9100975
 20
17.97540361111111
 30
0.0
  0
VERTEX
  5
170
330
16E
100
AcDbEntity
  8
Default
100
AcDbVertex
100
AcDb2dVertex
 10
279.8244269444444
 20
18.88973305555555
 30
0.0
  0
SEQEND
  5
171
330
16E
100
AcDbEntity
  8
Default
  0
POLYLINE
  5
172
330
1F
100
AcDbEntity
  8
Default
100
AcDb2dPolyline
 66
     1
 10
0.0
 20
0.0
 30
0.0
  0
VERTEX
  5
173
330
172
100
AcDbEntity
  8
Default
100
AcDbVertex
100
AcDb2dVertex
 10
362.8243949999999
 20
141.8892330555555
 30
0.0
  0
VERTEX
  5
174
330
172
100
AcDbEntity
  8
Default
100
AcDbVertex
100
AcDb2dVertex
 10
363.7386891666667
 20
142.8035625
 30
0.0
  0
SEQEND
  5
175
330
172
100
AcDbEntity
  8
Default
  0
POLYLINE
  5
176
330
1F
100
AcDbEntity
  8
Default
100
AcDb2dPolyline
 66
     1
 10
0.0
 20
0.0
 30
0.0
  0
VERTEX
  5
177
330
176
100
AcDbEntity
  8
Default
100
AcDbVertex
100
AcDb2dVertex
 10
363.7386891666667
 20
142.8035625
 30
0.0
  0
VERTEX
  5
178
330
176
100
AcDbEntity
  8
Default
100
AcDbVertex
100
AcDb2dVertex
 10
364.0517546397569
 20
143.0696853776042
 30
0.0
  0
VERTEX
  5
179
330
176
100
AcDbEntity
  8
Default
100
AcDbVertex
100
AcDb2dVertex
 10
364.2134812711589
 20
143.1708101611328
 30
0.0
  0
VERTEX
  5
17A
330
176
100
AcDbEntity
  8
Default
100
AcDbVertex
100
AcDb2dVertex
 10
364.3812871180555
 20
143.2517269791666
 30
0.0
  0
VERTEX
  5
17B
330
176
100
AcDbEntity
  8
Default
100
AcDbVertex
100
AcDb2dVertex
 10
364.5571346446397
 20
143.3132481852213
 30
0.0
  0
VERTEX
  5
17C
330
176
100
AcDbEntity
  8
Default
100
AcDbVertex
100
AcDb2dVertex
 10
364.7429863151041
 20
143.3561861328125
 30
0.0
  0
VERTEX
  5
17D
330
176
100
AcDbEntity
  8
Default
100
AcDbVertex
100
AcDb2dVertex
 10
365.1525519444444
 20
143.3895616666667
 30
0.0
  0
SEQEND
  5
17E
330
176
100
AcDbEntity
  8
Default
  0
POLYLINE
  5
17F
330
1F
100
AcDbEntity
  8
Default
100
AcDb2dPolyline
 66
     1
 10
0.0
 20
0.0
 30
0.0
  0
VERTEX
  5
180
330
17F
100
AcDbEntity
  8
Default
100
AcDbVertex
100
AcDb2dVertex
 10
365.1525519444444
 20
143.3895616666667
 30
0.0
  0
VERTEX
  5
181
330
17F
100
AcDbEntity
  8
Default
100
AcDbVertex
100
AcDb2dVertex
 10
376.4959097222222
 20
143.3895616666667
 30
0.0
  0
SEQEND
  5
182
330
17F
100
AcDbEntity
  8
Default
  0
POLYLINE
  5
183
330
1F
100
AcDbEntity
  8
Default
100
AcDb2dPolyline
 66
     1
 10
0.0
 20
0.0
 30
0.0
  0
VERTEX
  5
184
330
183
100
AcDbEntity
  8
Default
100
AcDbVertex
100
AcDb2dVertex
 10
376.4959097222222
 20
143.3895616666667
 30
0.0
  0
VERTEX
  5
185
330
183
100
AcDbEntity
  8
Default
100
AcDbVertex
100
AcDb2dVertex
 10
376.9054808637152
 20
143.3561861328125
 30
0.0
  0
VERTEX
  5
186
330
183
100
AcDbEntity
  8
Default
100
AcDbVertex
100
AcDb2dVertex
 10
377.0913456255425
 20
143.3132481852213
 30
0.0
  0
VERTEX
  5
187
330
183
100
AcDbEntity
  8
Default
100
AcDbVertex
100
AcDb2dVertex
 10
377.2672186458333
 20
143.2517269791666
 30
0.0
  0
VERTEX
  5
188
330
183
100
AcDbEntity
  8
Default
100
AcDbVertex
100
AcDb2dVertex
 10
377.435066522895
 20
143.1708101611328
 30
0.0
  0
VERTEX
  5
189
330
183
100
AcDbEntity
  8
Default
100
AcDbVertex
100
AcDb2dVertex
 10
377.5968558550347
 20
143.0696853776042
 30
0.0
  0
VERTEX
  5
18A
330
183
100
AcDbEntity
  8
Default
100
AcDbVertex
100
AcDb2dVertex
 10
377.9101252777777
 20
142.8035625
 30
0.0
  0
SEQEND
  5
18B
330
183
100
AcDbEntity
  8
Default
  0
POLYLINE
  5
18C
330
1F
100
AcDbEntity
  8
Default
100
AcDb2dPolyline
 66
     1
 10
0.0
 20
0.0
 30
0.0
  0
VERTEX
  5
18D
330
18C
100
AcDbEntity
  8
Default
100
AcDbVertex
100
AcDb2dVertex
 10
377.9101252777777
 20
142.8035625
 30
0.0
  0
VERTEX
  5
18E
330
18C
100
AcDbEntity
  8
Default
100
AcDbVertex
100
AcDb2dVertex
 10
378.8241019444445
 20
141.8892330555555
 30
0.0
  0
SEQEND
  5
18F
330
18C
100
AcDbEntity
  8
Default
  0
POLYLINE
  5
190
330
1F
100
AcDbEntity
  8
Default
100
AcDb2dPolyline
 66
     1
 10
0.0
 20
0.0
 30
0.0
  0
VERTEX
  5
191
330
190
100
AcDbEntity
  8
Default
100
AcDbVertex
100
AcDb2dVertex
 10
338.8241113888889
 20
141.8892330555555
 30
0.0
  0
VERTEX
  5
192
330
190
100
AcDbEntity
  8
Default
100
AcDbVertex
100
AcDb2dVertex
 10
339.7384408333333
 20
142.8035625
 30
0.0
  0
SEQEND
  5
193
330
190
100
AcDbEntity
  8
Default
  0
POLYLINE
  5
194
330
1F
100
AcDbEntity
  8
Default
100
AcDb2dPolyline
 66
     1
 10
0.0
 20
0.0
 30
0.0
  0
VERTEX
  5
195
330
194
100
AcDbEntity
  8
Default
100
AcDbVertex
100
AcDb2dVertex
 10
339.7384408333333
 20
142.8035625
 30
0.0
  0
VERTEX
  5
196
330
194
100
AcDbEntity
  8
Default
100
AcDbVertex
100
AcDb2dVertex
 10
340.0516898611111
 20
143.0696853776042
 30
0.0
  0
VERTEX
  5
197
330
194
100
AcDbEntity
  8
Default
100
AcDbVertex
100
AcDb2dVertex
 10
340.2134729231771
 20
143.1708101611328
 30
0.0
  0
VERTEX
  5
198
330
194
100
AcDbEntity
  8
Default
100
AcDbVertex
100
AcDb2dVertex
 10
340.3813165972222
 20
143.2517269791666
 30
0.0
  0
VERTEX
  5
199
330
194
100
AcDbEntity
  8
Default
100
AcDbVertex
100
AcDb2dVertex
 10
340.5571870681424
 20
143.3132481852213
 30
0.0
  0
VERTEX
  5
19A
330
194
100
AcDbEntity
  8
Default
100
AcDbVertex
100
AcDb2dVertex
 10
340.7430505208333
 20
143.3561861328125
 30
0.0
  0
VERTEX
  5
19B
330
194
100
AcDbEntity
  8
Default
100
AcDbVertex
100
AcDb2dVertex
 10
341.152621111111
 20
143.3895616666667
 30
0.0
  0
SEQEND
  5
19C
330
194
100
AcDbEntity
  8
Default
  0
POLYLINE
  5
19D
330
1F
100
AcDbEntity
  8
Default
100
AcDb2dPolyline
 66
     1
 10
0.0
 20
0.0
 30
0.0
  0
VERTEX
  5
19E
330
19D
100
AcDbEntity
  8
Default
100
AcDbVertex
100
AcDb2dVertex
 10
341.152621111111
 20
143.3895616666667
 30
0.0
  0
VERTEX
  5
19F
330
19D
100
AcDbEntity
  8
Default
100
AcDbVertex
100
AcDb2dVertex
 10
352.4959436111111
 20
143.3895616666667
 30
0.0
  0
SEQEND
  5
1A0
330
19D
100
AcDbEntity
  8
Default
  0
POLYLINE
  5
1A1
330
1F
100
AcDbEntity
  8
Default
100
AcDb2dPolyline
 66
     1
 10
0.0
 20
0.0
 30
0.0
  0
VERTEX
  5
1A2
330
1A1
100
AcDbEntity
  8
Default
100
AcDbVertex
100
AcDb2dVertex
 10
352.4959436111111
 20
143.3895616666667
 30
0.0
  0
VERTEX
  5
1A3
330
1A1
100
AcDbEntity
  8
Default
100
AcDbVertex
100
AcDb2dVertex
 10
352.9055147526041
 20
143.3561861328125
 30
0.0
  0
VERTEX
  5
1A4
330
1A1
100
AcDbEntity
  8
Default
100
AcDbVertex
100
AcDb2dVertex
 10
353.0913720730251
 20
143.3132481852213
 30
0.0
  0
VERTEX
  5
1A5
330
1A1
100
AcDbEntity
  8
Default
100
AcDbVertex
100
AcDb2dVertex
 10
353.2672260763889
 20
143.2517269791666
 30
0.0
  0
VERTEX
  5
1A6
330
1A1
100
AcDbEntity
  8
Default
100
AcDbVertex
100
AcDb2dVertex
 10
353.4350384000651
 20
143.1708101611328
 30
0.0
  0
VERTEX
  5
1A7
330
1A1
100
AcDbEntity
  8
Default
100
AcDbVertex
100
AcDb2dVertex
 10
353.5967706814235
 20
143.0696853776042
 30
0.0
  0
VERTEX
  5
1A8
330
1A1
100
AcDbEntity
  8
Default
100
AcDbVertex
100
AcDb2dVertex
 10
353.9098416666666
 20
142.8035625
 30
0.0
  0
SEQEND
  5
1A9
330
1A1
100
AcDbEntity
  8
Default
  0
POLYLINE
  5
1AA
330
1F
100
AcDbEntity
  8
Default
100
AcDb2dPolyline
 66
     1
 10
0.0
 20
0.0
 30
0.0
  0
VERTEX
  5
1AB
330
1AA
100
AcDbEntity
  8
Default
100
AcDbVertex
100
AcDb2dVertex
 10
353.9098416666666
 20
142.8035625
 30
0.0
  0
VERTEX
  5
1AC
330
1AA
100
AcDbEntity
  8
Default
100
AcDbVertex
100
AcDb2dVertex
 10
354.8241711111111
 20
141.8892330555555
 30
0.0
  0
SEQEND
  5
1AD
330
1AA
100
AcDbEntity
  8
Default
  0
POLYLINE
  5
1AE
330
1F
100
AcDbEntity
  8
Default
100
AcDb2dPolyline
 66
     1
 10
0.0
 20
0.0
 30
0.0
  0
VERTEX
  5
1AF
330
1AE
100
AcDbEntity
  8
Default
100
AcDbVertex
100
AcDb2dVertex
 10
291.3241711111111
 20
42.63947388888889
 30
0.0
  0
VERTEX
  5
1B0
330
1AE
100
AcDbEntity
  8
Default
100
AcDbVertex
100
AcDb2dVertex
 10
291.293700343967
 20
42.94170102267795
 30
0.0
  0
VERTEX
  5
1B1
330
1AE
100
AcDbEntity
  8
Default
100
AcDbVertex
100
AcDb2dVertex
 10
291.2063069531249
 20
43.22319929253472
 30
0.0
  0
VERTEX
  5
1B2
330
1AE
100
AcDbEntity
  8
Default
100
AcDbVertex
100
AcDb2dVertex
 10
291.0680193044704
 20
43.47793743869357
 30
0.0
  0
VERTEX
  5
1B3
330
1AE
100
AcDbEntity
  8
Default
100
AcDbVertex
100
AcDb2dVertex
 10
290.8848657638888
 20
43.69988420138888
 30
0.0
  0
VERTEX
  5
1B4
330
1AE
100
AcDbEntity
  8
Default
100
AcDbVertex
100
AcDb2dVertex
 10
290.6628746972656
 20
43.88300832085503
 30
0.0
  0
VERTEX
  5
1B5
330
1AE
100
AcDbEntity
  8
Default
100
AcDbVertex
100
AcDb2dVertex
 10
290.4080744704861
 20
44.02127853732638
 30
0.0
  0
VERTEX
  5
1B6
330
1AE
100
AcDbEntity
  8
Default
100
AcDbVertex
100
AcDb2dVertex
 10
290.1264934494358
 20
44.10866359103732
 30
0.0
  0
VERTEX
  5
1B7
330
1AE
100
AcDbEntity
  8
Default
100
AcDbVertex
100
AcDb2dVertex
 10
289.82416
 20
44.13913222222222
 30
0.0
  0
SEQEND
  5
1B8
330
1AE
100
AcDbEntity
  8
Default
  0
POLYLINE
  5
1B9
330
1F
100
AcDbEntity
  8
Default
100
AcDb2dPolyline
 66
     1
 10
0.0
 20
0.0
 30
0.0
  0
VERTEX
  5
1BA
330
1B9
100
AcDbEntity
  8
Default
100
AcDbVertex
100
AcDb2dVertex
 10
289.82416
 20
44.13913222222222
 30
0.0
  0
VERTEX
  5
1BB
330
1B9
100
AcDbEntity
  8
Default
100
AcDbVertex
100
AcDb2dVertex
 10
289.5219177077908
 20
44.10866359103732
 30
0.0
  0
VERTEX
  5
1BC
330
1B9
100
AcDbEntity
  8
Default
100
AcDbVertex
100
AcDb2dVertex
 10
289.2403794748263
 20
44.02127853732638
 30
0.0
  0
VERTEX
  5
1BD
330
1B9
100
AcDbEntity
  8
Default
100
AcDbVertex
100
AcDb2dVertex
 10
288.9855848291015
 20
43.88300832085503
 30
0.0
  0
VERTEX
  5
1BE
330
1B9
100
AcDbEntity
  8
Default
100
AcDbVertex
100
AcDb2dVertex
 10
288.763573298611
 20
43.69988420138888
 30
0.0
  0
VERTEX
  5
1BF
330
1B9
100
AcDbEntity
  8
Default
100
AcDbVertex
100
AcDb2dVertex
 10
288.5803844113498
 20
43.47793743869357
 30
0.0
  0
VERTEX
  5
1C0
330
1B9
100
AcDbEntity
  8
Default
100
AcDbVertex
100
AcDb2dVertex
 10
288.4420576953124
 20
43.22319929253472
 30
0.0
  0
VERTEX
  5
1C1
330
1B9
100
AcDbEntity
  8
Default
100
AcDbVertex
100
AcDb2dVertex
 10
288.3546326784939
 20
42.94170102267795
 30
0.0
  0
VERTEX
  5
1C2
330
1B9
100
AcDbEntity
  8
Default
100
AcDbVertex
100
AcDb2dVertex
 10
288.3241488888888
 20
42.63947388888889
 30
0.0
  0
SEQEND
  5
1C3
330
1B9
100
AcDbEntity
  8
Default
  0
POLYLINE
  5
1C4
330
1F
100
AcDbEntity
  8
Default
100
AcDb2dPolyline
 66
     1
 10
0.0
 20
0.0
 30
0.0
  0
VERTEX
  5
1C5
330
1C4
100
AcDbEntity
  8
Default
100
AcDbVertex
100
AcDb2dVertex
 10
288.3241488888888
 20
42.63947388888889
 30
0.0
  0
VERTEX
  5
1C6
330
1C4
100
AcDbEntity
  8
Default
100
AcDbVertex
100
AcDb2dVertex
 10
288.3546326784939
 20
42.3370255110677
 30
0.0
  0
VERTEX
  5
1C7
330
1C4
100
AcDbEntity
  8
Default
100
AcDbVertex
100
AcDb2dVertex
 10
288.4420576953124
 20
42.05536098090277
 30
0.0
  0
VERTEX
  5
1C8
330
1C4
100
AcDbEntity
  8
Default
100
AcDbVertex
100
AcDb2dVertex
 10
288.5803844113498
 20
41.80050370334201
 30
0.0
  0
VERTEX
  5
1C9
330
1C4
100
AcDbEntity
  8
Default
100
AcDbVertex
100
AcDb2dVertex
 10
288.763573298611
 20
41.57847708333333
 30
0.0
  0
VERTEX
  5
1CA
330
1C4
100
AcDbEntity
  8
Default
100
AcDbVertex
100
AcDb2dVertex
 10
288.9855848291015
 20
41.39530452582466
 30
0.0
  0
VERTEX
  5
1CB
330
1C4
100
AcDbEntity
  8
Default
100
AcDbVertex
100
AcDb2dVertex
 10
289.2403794748263
 20
41.25700943576389
 30
0.0
  0
VERTEX
  5
1CC
330
1C4
100
AcDbEntity
  8
Default
100
AcDbVertex
100
AcDb2dVertex
 10
289.5219177077908
 20
41.16961521809896
 30
0.0
  0
VERTEX
  5
1CD
330
1C4
100
AcDbEntity
  8
Default
100
AcDbVertex
100
AcDb2dVertex
 10
289.82416
 20
41.13914527777778
 30
0.0
  0
SEQEND
  5
1CE
330
1C4
100
AcDbEntity
  8
Default
  0
POLYLINE
  5
1CF
330
1F
100
AcDbEntity
  8
Default
100
AcDb2dPolyline
 66
     1
 10
0.0
 20
0.0
 30
0.0
  0
VERTEX
  5
1D0
330
1CF
100
AcDbEntity
  8
Default
100
AcDbVertex
100
AcDb2dVertex
 10
289.82416
 20
41.13914527777778
 30
0.0
  0
VERTEX
  5
1D1
330
1CF
100
AcDbEntity
  8
Default
100
AcDbVertex
100
AcDb2dVertex
 10
290.1264934494358
 20
41.16961521809896
 30
0.0
  0
VERTEX
  5
1D2
330
1CF
100
AcDbEntity
  8
Default
100
AcDbVertex
100
AcDb2dVertex
 10
290.4080744704861
 20
41.25700943576389
 30
0.0
  0
VERTEX
  5
1D3
330
1CF
100
AcDbEntity
  8
Default
100
AcDbVertex
100
AcDb2dVertex
 10
290.6628746972656
 20
41.39530452582466
 30
0.0
  0
VERTEX
  5
1D4
330
1CF
100
AcDbEntity
  8
Default
100
AcDbVertex
100
AcDb2dVertex
 10
290.8848657638888
 20
41.57847708333333
 30
0.0
  0
VERTEX
  5
1D5
330
1CF
100
AcDbEntity
  8
Default
100
AcDbVertex
100
AcDb2dVertex
 10
291.0680193044704
 20
41.80050370334201
 30
0.0
  0
VERTEX
  5
1D6
330
1CF
100
AcDbEntity
  8
Default
100
AcDbVertex
100
AcDb2dVertex
 10
291.2063069531249
 20
42.05536098090277
 30
0.0
  0
VERTEX
  5
1D7
330
1CF
100
AcDbEntity
  8
Default
100
AcDbVertex
100
AcDb2dVertex
 10
291.293700343967
 20
42.3370255110677
 30
0.0
  0
VERTEX
  5
1D8
330
1CF
100
AcDbEntity
  8
Default
100
AcDbVertex
100
AcDb2dVertex
 10
291.3241711111111
 20
42.63947388888889
 30
0.0
  0
SEQEND
  5
1D9
330
1CF
100
AcDbEntity
  8
Default
  0
POLYLINE
  5
1DA
330
1F
100
AcDbEntity
  8
Default
100
AcDb2dPolyline
 66
     1
 10
0.0
 20
0.0
 30
0.0
  0
VERTEX
  5
1DB
330
1DA
100
AcDbEntity
  8
Default
100
AcDbVertex
100
AcDb2dVertex
 10
323.3242552777778
 20
60.88919749999999
 30
0.0
  0
VERTEX
  5
1DC
330
1DA
100
AcDbEntity
  8
Default
100
AcDbVertex
100
AcDb2dVertex
 10
323.1197797828505
 20
60.87887224738226
 30
0.0
  0
VERTEX
  5
1DD
330
1DA
100
AcDbEntity
  8
Default
100
AcDbVertex
100
AcDb2dVertex
 10
322.9212029459635
 20
60.84856666395399
 30
0.0
  0
VERTEX
  5
1DE
330
1DA
100
AcDbEntity
  8
Default
100
AcDbVertex
100
AcDb2dVertex
 10
322.5457706336805
 20
60.73203555121528
 30
0.0
  0
VERTEX
  5
1DF
330
1DA
100
AcDbEntity
  8
Default
100
AcDbVertex
100
AcDb2dVertex
 10
322.2060091156684
 20
60.54764625488281
 30
0.0
  0
VERTEX
  5
1E0
330
1DA
100
AcDbEntity
  8
Default
100
AcDbVertex
100
AcDb2dVertex
 10
321.9099691666667
 20
60.30344086805556
 30
0.0
  0
VERTEX
  5
1E1
330
1DA
100
AcDbEntity
  8
Default
100
AcDbVertex
100
AcDb2dVertex
 10
321.6657015614149
 20
60.00746148383247
 30
0.0
  0
VERTEX
  5
1E2
330
1DA
100
AcDbEntity
  8
Default
100
AcDbVertex
100
AcDb2dVertex
 10
321.4812570746528
 20
59.66775019531251
 30
0.0
  0
VERTEX
  5
1E3
330
1DA
100
AcDbEntity
  8
Default
100
AcDbVertex
100
AcDb2dVertex
 10
321.3646864811197
 20
59.29234909559462
 30
0.0
  0
VERTEX
  5
1E4
330
1DA
100
AcDbEntity
  8
Default
100
AcDbVertex
100
AcDb2dVertex
 10
321.3343697614204
 20
59.09377802062988
 30
0.0
  0
VERTEX
  5
1E5
330
1DA
100
AcDbEntity
  8
Default
100
AcDbVertex
100
AcDb2dVertex
 10
321.3240405555555
 20
58.88930027777777
 30
0.0
  0
SEQEND
  5
1E6
330
1DA
100
AcDbEntity
  8
Default
  0
POLYLINE
  5
1E7
330
1F
100
AcDbEntity
  8
Default
100
AcDb2dPolyline
 66
     1
 10
0.0
 20
0.0
 30
0.0
  0
VERTEX
  5
1E8
330
1E7
100
AcDbEntity
  8
Default
100
AcDbVertex
100
AcDb2dVertex
 10
321.3240405555555
 20
58.88930027777777
 30
0.0
  0
VERTEX
  5
1E9
330
1E7
100
AcDbEntity
  8
Default
100
AcDbVertex
100
AcDb2dVertex
 10
321.3343697614204
 20
58.68482478285047
 30
0.0
  0
VERTEX
  5
1EA
330
1E7
100
AcDbEntity
  8
Default
100
AcDbVertex
100
AcDb2dVertex
 10
321.3646864811197
 20
58.48624794596353
 30
0.0
  0
VERTEX
  5
1EB
330
1E7
100
AcDbEntity
  8
Default
100
AcDbVertex
100
AcDb2dVertex
 10
321.4812570746528
 20
58.11081563368055
 30
0.0
  0
VERTEX
  5
1EC
330
1E7
100
AcDbEntity
  8
Default
100
AcDbVertex
100
AcDb2dVertex
 10
321.6657015614149
 20
57.77105411566839
 30
0.0
  0
VERTEX
  5
1ED
330
1E7
100
AcDbEntity
  8
Default
100
AcDbVertex
100
AcDb2dVertex
 10
321.9099691666667
 20
57.47501416666665
 30
0.0
  0
VERTEX
  5
1EE
330
1E7
100
AcDbEntity
  8
Default
100
AcDbVertex
100
AcDb2dVertex
 10
322.2060091156684
 20
57.23074656141492
 30
0.0
  0
VERTEX
  5
1EF
330
1E7
100
AcDbEntity
  8
Default
100
AcDbVertex
100
AcDb2dVertex
 10
322.5457706336805
 20
57.04630207465277
 30
0.0
  0
VERTEX
  5
1F0
330
1E7
100
AcDbEntity
  8
Default
100
AcDbVertex
100
AcDb2dVertex
 10
322.9212029459635
 20
56.92973148111979
 30
0.0
  0
VERTEX
  5
1F1
330
1E7
100
AcDbEntity
  8
Default
100
AcDbVertex
100
AcDb2dVertex
 10
323.1197797828505
 20
56.89941476142035
 30
0.0
  0
VERTEX
  5
1F2
330
1E7
100
AcDbEntity
  8
Default
100
AcDbVertex
100
AcDb2dVertex
 10
323.3242552777778
 20
56.88908555555555
 30
0.0
  0
SEQEND
  5
1F3
330
1E7
100
AcDbEntity
  8
Default
  0
POLYLINE
  5
1F4
330
1F
100
AcDbEntity
  8
Default
100
AcDb2dPolyline
 66
     1
 10
0.0
 20
0.0
 30
0.0
  0
VERTEX
  5
1F5
330
1F4
100
AcDbEntity
  8
Default
100
AcDbVertex
100
AcDb2dVertex
 10
323.3242552777778
 20
56.88908555555555
 30
0.0
  0
VERTEX
  5
1F6
330
1F4
100
AcDbEntity
  8
Default
100
AcDbVertex
100
AcDb2dVertex
 10
337.3244530555555
 20
56.88908555555555
 30
0.0
  0
SEQEND
  5
1F7
330
1F4
100
AcDbEntity
  8
Default
  0
POLYLINE
  5
1F8
330
1F
100
AcDbEntity
  8
Default
100
AcDb2dPolyline
 66
     1
 10
0.0
 20
0.0
 30
0.0
  0
VERTEX
  5
1F9
330
1F8
100
AcDbEntity
  8
Default
100
AcDbVertex
100
AcDb2dVertex
 10
337.3244530555555
 20
56.88908555555555
 30
0.0
  0
VERTEX
  5
1FA
330
1F8
100
AcDbEntity
  8
Default
100
AcDbVertex
100
AcDb2dVertex
 10
337.528924588623
 20
56.89941476142035
 30
0.0
  0
VERTEX
  5
1FB
330
1F8
100
AcDbEntity
  8
Default
100
AcDbVertex
100
AcDb2dVertex
 10
337.7274902289496
 20
56.92973148111979
 30
0.0
  0
VERTEX
  5
1FC
330
1F8
100
AcDbEntity
  8
Default
100
AcDbVertex
100
AcDb2dVertex
 10
338.102882578125
 20
57.04630207465277
 30
0.0
  0
VERTEX
  5
1FD
330
1F8
100
AcDbEntity
  8
Default
100
AcDbVertex
100
AcDb2dVertex
 10
338.4425875965712
 20
57.23074656141492
 30
0.0
  0
VERTEX
  5
1FE
330
1F8
100
AcDbEntity
  8
Default
100
AcDbVertex
100
AcDb2dVertex
 10
338.7385627777778
 20
57.47501416666665
 30
0.0
  0
VERTEX
  5
1FF
330
1F8
100
AcDbEntity
  8
Default
100
AcDbVertex
100
AcDb2dVertex
 10
338.9827656152344
 20
57.77105411566839
 30
0.0
  0
VERTEX
  5
200
330
1F8
100
AcDbEntity
  8
Default
100
AcDbVertex
100
AcDb2dVertex
 10
339.1671536024305
 20
58.11081563368055
 30
0.0
  0
VERTEX
  5
201
330
1F8
100
AcDbEntity
  8
Default
100
AcDbVertex
100
AcDb2dVertex
 10
339.2836842328559
 20
58.48624794596353
 30
0.0
  0
VERTEX
  5
202
330
1F8
100
AcDbEntity
  8
Default
100
AcDbVertex
100
AcDb2dVertex
 10
339.313989755995
 20
58.68482478285047
 30
0.0
  0
VERTEX
  5
203
330
1F8
100
AcDbEntity
  8
Default
100
AcDbVertex
100
AcDb2dVertex
 10
339.324315
 20
58.88930027777777
 30
0.0
  0
SEQEND
  5
204
330
1F8
100
AcDbEntity
  8
Default
  0
POLYLINE
  5
205
330
1F
100
AcDbEntity
  8
Default
100
AcDb2dPolyline
 66
     1
 10
0.0
 20
0.0
 30
0.0
  0
VERTEX
  5
206
330
205
100
AcDbEntity
  8
Default
100
AcDbVertex
100
AcDb2dVertex
 10
339.324315
 20
58.88930027777777
 30
0.0
  0
VERTEX
  5
207
330
205
100
AcDbEntity
  8
Default
100
AcDbVertex
100
AcDb2dVertex
 10
339.313989755995
 20
59.09377802062988
 30
0.0
  0
VERTEX
  5
208
330
205
100
AcDbEntity
  8
Default
100
AcDbVertex
100
AcDb2dVertex
 10
339.2836842328559
 20
59.29234909559462
 30
0.0
  0
VERTEX
  5
209
330
205
100
AcDbEntity
  8
Default
100
AcDbVertex
100
AcDb2dVertex
 10
339.1671536024305
 20
59.66775019531251
 30
0.0
  0
VERTEX
  5
20A
330
205
100
AcDbEntity
  8
Default
100
AcDbVertex
100
AcDb2dVertex
 10
338.9827656152344
 20
60.00746148383247
 30
0.0
  0
VERTEX
  5
20B
330
205
100
AcDbEntity
  8
Default
100
AcDbVertex
100
AcDb2dVertex
 10
338.7385627777778
 20
60.30344086805556
 30
0.0
  0
VERTEX
  5
20C
330
205
100
AcDbEntity
  8
Default
100
AcDbVertex
100
AcDb2dVertex
 10
338.4425875965712
 20
60.54764625488281
 30
0.0
  0
VERTEX
  5
20D
330
205
100
AcDbEntity
  8
Default
100
AcDbVertex
100
AcDb2dVertex
 10
338.102882578125
 20
60.73203555121528
 30
0.0
  0
VERTEX
  5
20E
330
205
100
AcDbEntity
  8
Default
100
AcDbVertex
100
AcDb2dVertex
 10
337.7274902289496
 20
60.84856666395399
 30
0.0
  0
VERTEX
  5
20F
330
205
100
AcDbEntity
  8
Default
100
AcDbVertex
100
AcDb2dVertex
 10
337.528924588623
 20
60.87887224738226
 30
0.0
  0
VERTEX
  5
210
330
205
100
AcDbEntity
  8
Default
100
AcDbVertex
100
AcDb2dVertex
 10
337.3244530555555
 20
60.88919749999999
 30
0.0
  0
SEQEND
  5
211
330
205
100
AcDbEntity
  8
Default
  0
POLYLINE
  5
212
330
1F
100
AcDbEntity
  8
Default
100
AcDb2dPolyline
 66
     1
 10
0.0
 20
0.0
 30
0.0
  0
VERTEX
  5
213
330
212
100
AcDbEntity
  8
Default
100
AcDbVertex
100
AcDb2dVertex
 10
337.3244530555555
 20
60.88919749999999
 30
0.0
  0
VERTEX
  5
214
330
212
100
AcDbEntity
  8
Default
100
AcDbVertex
100
AcDb2dVertex
 10
323.3242552777778
 20
60.88919749999999
 30
0.0
  0
SEQEND
  5
215
330
212
100
AcDbEntity
  8
Default
  0
POLYLINE
  5
216
330
1F
100
AcDbEntity
  8
Default
100
AcDb2dPolyline
 66
     1
 10
0.0
 20
0.0
 30
0.0
  0
VERTEX
  5
217
330
216
100
AcDbEntity
  8
Default
100
AcDbVertex
100
AcDb2dVertex
 10
366.0744661111111
 20
56.88908555555555
 30
0.0
  0
VERTEX
  5
218
330
216
100
AcDbEntity
  8
Default
100
AcDbVertex
100
AcDb2dVertex
 10
366.2788853217909
 20
56.89941476142035
 30
0.0
  0
VERTEX
  5
219
330
216
100
AcDbEntity
  8
Default
100
AcDbVertex
100
AcDb2dVertex
 10
366.4774121272786
 20
56.92973148111979
 30
0.0
  0
VERTEX
  5
21A
330
216
100
AcDbEntity
  8
Default
100
AcDbVertex
100
AcDb2dVertex
 10
366.852761688368
 20
57.04630207465277
 30
0.0
  0
VERTEX
  5
21B
330
216
100
AcDbEntity
  8
Default
100
AcDbVertex
100
AcDb2dVertex
 10
367.1924611257596
 20
57.23074656141492
 30
0.0
  0
VERTEX
  5
21C
330
216
100
AcDbEntity
  8
Default
100
AcDbVertex
100
AcDb2dVertex
 10
367.4884567708334
 20
57.47501416666665
 30
0.0
  0
VERTEX
  5
21D
330
216
100
AcDbEntity
  8
Default
100
AcDbVertex
100
AcDb2dVertex
 10
367.7326949549696
 20
57.77105411566839
 30
0.0
  0
VERTEX
  5
21E
330
216
100
AcDbEntity
  8
Default
100
AcDbVertex
100
AcDb2dVertex
 10
367.9171220095486
 20
58.11081563368055
 30
0.0
  0
VERTEX
  5
21F
330
216
100
AcDbEntity
  8
Default
100
AcDbVertex
100
AcDb2dVertex
 10
368.0336842659506
 20
58.48624794596353
 30
0.0
  0
VERTEX
  5
220
330
216
100
AcDbEntity
  8
Default
100
AcDbVertex
100
AcDb2dVertex
 10
368.0639993233914
 20
58.68482478285047
 30
0.0
  0
VERTEX
  5
221
330
216
100
AcDbEntity
  8
Default
100
AcDbVertex
100
AcDb2dVertex
 10
368.0743280555556
 20
58.88930027777777
 30
0.0
  0
SEQEND
  5
222
330
216
100
AcDbEntity
  8
Default
  0
POLYLINE
  5
223
330
1F
100
AcDbEntity
  8
Default
100
AcDb2dPolyline
 66
     1
 10
0.0
 20
0.0
 30
0.0
  0
VERTEX
  5
224
330
223
100
AcDbEntity
  8
Default
100
AcDbVertex
100
AcDb2dVertex
 10
368.0743280555556
 20
58.88930027777777
 30
0.0
  0
VERTEX
  5
225
330
223
100
AcDbEntity
  8
Default
100
AcDbVertex
100
AcDb2dVertex
 10
368.0639993233914
 20
59.09377802062988
 30
0.0
  0
VERTEX
  5
226
330
223
100
AcDbEntity
  8
Default
100
AcDbVertex
100
AcDb2dVertex
 10
368.0336842659506
 20
59.29234909559462
 30
0.0
  0
VERTEX
  5
227
330
223
100
AcDbEntity
  8
Default
100
AcDbVertex
100
AcDb2dVertex
 10
367.9171220095486
 20
59.66775019531251
 30
0.0
  0
VERTEX
  5
228
330
223
100
AcDbEntity
  8
Default
100
AcDbVertex
100
AcDb2dVertex
 10
367.7326949549696
 20
60.00746148383247
 30
0.0
  0
VERTEX
  5
229
330
223
100
AcDbEntity
  8
Default
100
AcDbVertex
100
AcDb2dVertex
 10
367.4884567708334
 20
60.30344086805556
 30
0.0
  0
VERTEX
  5
22A
330
223
100
AcDbEntity
  8
Default
100
AcDbVertex
100
AcDb2dVertex
 10
367.1924611257596
 20
60.54764625488281
 30
0.0
  0
VERTEX
  5
22B
330
223
100
AcDbEntity
  8
Default
100
AcDbVertex
100
AcDb2dVertex
 10
366.852761688368
 20
60.73203555121528
 30
0.0
  0
VERTEX
  5
22C
330
223
100
AcDbEntity
  8
Default
100
AcDbVertex
100
AcDb2dVertex
 10
366.4774121272786
 20
60.84856666395399
 30
0.0
  0
VERTEX
  5
22D
330
223
100
AcDbEntity
  8
Default
100
AcDbVertex
100
AcDb2dVertex
 10
366.2788853217909
 20
60.87887224738226
 30
0.0
  0
VERTEX
  5
22E
330
223
100
AcDbEntity
  8
Default
100
AcDbVertex
100
AcDb2dVertex
 10
366.0744661111111
 20
60.88919749999999
 30
0.0
  0
SEQEND
  5
22F
330
223
100
AcDbEntity
  8
Default
  0
POLYLINE
  5
230
330
1F
100
AcDbEntity
  8
Default
100
AcDb2dPolyline
 66
     1
 10
0.0
 20
0.0
 30
0.0
  0
VERTEX
  5
231
330
230
100
AcDbEntity
  8
Default
100
AcDbVertex
100
AcDb2dVertex
 10
366.0744661111111
 20
60.88919749999999
 30
0.0
  0
VERTEX
  5
232
330
230
100
AcDbEntity
  8
Default
100
AcDbVertex
100
AcDb2dVertex
 10
356.5742663888889
 20
60.88919749999999
 30
0.0
  0
SEQEND
  5
233
330
230
100
AcDbEntity
  8
Default
  0
POLYLINE
  5
234
330
1F
100
AcDbEntity
  8
Default
100
AcDb2dPolyline
 66
     1
 10
0.0
 20
0.0
 30
0.0
  0
VERTEX
  5
235
330
234
100
AcDbEntity
  8
Default
100
AcDbVertex
100
AcDb2dVertex
 10
356.5742663888889
 20
60.88919749999999
 30
0.0
  0
VERTEX
  5
236
330
234
100
AcDbEntity
  8
Default
100
AcDbVertex
100
AcDb2dVertex
 10
356.3697850803629
 20
60.87887224738226
 30
0.0
  0
VERTEX
  5
237
330
234
100
AcDbEntity
  8
Default
100
AcDbVertex
100
AcDb2dVertex
 10
356.1712039284939
 20
60.84856666395399
 30
0.0
  0
VERTEX
  5
238
330
234
100
AcDbEntity
  8
Default
100
AcDbVertex
100
AcDb2dVertex
 10
355.7957668619791
 20
60.73203555121528
 30
0.0
  0
VERTEX
  5
239
330
234
100
AcDbEntity
  8
Default
100
AcDbVertex
100
AcDb2dVertex
 10
355.4560047238498
 20
60.54764625488281
 30
0.0
  0
VERTEX
  5
23A
330
234
100
AcDbEntity
  8
Default
100
AcDbVertex
100
AcDb2dVertex
 10
355.1599670486111
 20
60.30344086805556
 30
0.0
  0
VERTEX
  5
23B
330
234
100
AcDbEntity
  8
Default
100
AcDbVertex
100
AcDb2dVertex
 10
354.9157033707681
 20
60.00746148383247
 30
0.0
  0
VERTEX
  5
23C
330
234
100
AcDbEntity
  8
Default
100
AcDbVertex
100
AcDb2dVertex
 10
354.7312632248263
 20
59.66775019531251
 30
0.0
  0
VERTEX
  5
23D
330
234
100
AcDbEntity
  8
Default
100
AcDbVertex
100
AcDb2dVertex
 10
354.6146961452907
 20
59.29234909559462
 30
0.0
  0
VERTEX
  5
23E
330
234
100
AcDbEntity
  8
Default
100
AcDbVertex
100
AcDb2dVertex
 10
354.5843804849582
 20
59.09377802062988
 30
0.0
  0
VERTEX
  5
23F
330
234
100
AcDbEntity
  8
Default
100
AcDbVertex
100
AcDb2dVertex
 10
354.5740516666667
 20
58.88930027777777
 30
0.0
  0
SEQEND
  5
240
330
234
100
AcDbEntity
  8
Default
  0
POLYLINE
  5
241
330
1F
100
AcDbEntity
  8
Default
100
AcDb2dPolyline
 66
     1
 10
0.0
 20
0.0
 30
0.0
  0
VERTEX
  5
242
330
241
100
AcDbEntity
  8
Default
100
AcDbVertex
100
AcDb2dVertex
 10
354.5740516666667
 20
58.88930027777777
 30
0.0
  0
VERTEX
  5
243
330
241
100
AcDbEntity
  8
Default
100
AcDbVertex
100
AcDb2dVertex
 10
354.5843804849582
 20
58.68482478285047
 30
0.0
  0
VERTEX
  5
244
330
241
100
AcDbEntity
  8
Default
100
AcDbVertex
100
AcDb2dVertex
 10
354.6146961452907
 20
58.48624794596353
 30
0.0
  0
VERTEX
  5
245
330
241
100
AcDbEntity
  8
Default
100
AcDbVertex
100
AcDb2dVertex
 10
354.7312632248263
 20
58.11081563368055
 30
0.0
  0
VERTEX
  5
246
330
241
100
AcDbEntity
  8
Default
100
AcDbVertex
100
AcDb2dVertex
 10
354.9157033707681
 20
57.77105411566839
 30
0.0
  0
VERTEX
  5
247
330
241
100
AcDbEntity
  8
Default
100
AcDbVertex
100
AcDb2dVertex
 10
355.1599670486111
 20
57.47501416666665
 30
0.0
  0
VERTEX
  5
248
330
241
100
AcDbEntity
  8
Default
100
AcDbVertex
100
AcDb2dVertex
 10
355.4560047238498
 20
57.23074656141492
 30
0.0
  0
VERTEX
  5
249
330
241
100
AcDbEntity
  8
Default
100
AcDbVertex
100
AcDb2dVertex
 10
355.7957668619791
 20
57.04630207465277
 30
0.0
  0
VERTEX
  5
24A
330
241
100
AcDbEntity
  8
Default
100
AcDbVertex
100
AcDb2dVertex
 10
356.1712039284939
 20
56.92973148111979
 30
0.0
  0
VERTEX
  5
24B
330
241
100
AcDbEntity
  8
Default
100
AcDbVertex
100
AcDb2dVertex
 10
356.3697850803629
 20
56.89941476142035
 30
0.0
  0
VERTEX
  5
24C
330
241
100
AcDbEntity
  8
Default
100
AcDbVertex
100
AcDb2dVertex
 10
356.5742663888889
 20
56.88908555555555
 30
0.0
  0
SEQEND
  5
24D
330
241
100
AcDbEntity
  8
Default
  0
POLYLINE
  5
24E
330
1F
100
AcDbEntity
  8
Default
100
AcDb2dPolyline
 66
     1
 10
0.0
 20
0.0
 30
0.0
  0
VERTEX
  5
24F
330
24E
100
AcDbEntity
  8
Default
100
AcDbVertex
100
AcDb2dVertex
 10
356.5742663888889
 20
56.88908555555555
 30
0.0
  0
VERTEX
  5
250
330
24E
100
AcDbEntity
  8
Default
100
AcDbVertex
100
AcDb2dVertex
 10
366.0744661111111
 20
56.88908555555555
 30
0.0
  0
SEQEND
  5
251
330
24E
100
AcDbEntity
  8
Default
  0
POLYLINE
  5
252
330
1F
100
AcDbEntity
  8
Default
100
AcDb2dPolyline
 66
     1
 10
0.0
 20
0.0
 30
0.0
  0
VERTEX
  5
253
330
252
100
AcDbEntity
  8
Default
100
AcDbVertex
100
AcDb2dVertex
 10
332.3242866666666
 20
99.88938055555555
 30
0.0
  0
VERTEX
  5
254
330
252
100
AcDbEntity
  8
Default
100
AcDbVertex
100
AcDb2dVertex
 10
382.3243277777777
 20
99.88938055555555
 30
0.0
  0
SEQEND
  5
255
330
252
100
AcDbEntity
  8
Default
  0
POLYLINE
  5
256
330
1F
100
AcDbEntity
  8
Default
100
AcDb2dPolyline
 66
     1
 10
0.0
 20
0.0
 30
0.0
  0
VERTEX
  5
257
330
256
100
AcDbEntity
  8
Default
100
AcDbVertex
100
AcDb2dVertex
 10
382.3243277777777
 20
99.88938055555555
 30
0.0
  0
VERTEX
  5
258
330
256
100
AcDbEntity
  8
Default
100
AcDbVertex
100
AcDb2dVertex
 10
382.528803272705
 20
99.8997023200141
 30
0.0
  0
VERTEX
  5
259
330
256
100
AcDbEntity
  8
Default
100
AcDbVertex
100
AcDb2dVertex
 10
382.7273801095919
 20
99.92999836914062
 30
0.0
  0
VERTEX
  5
25A
330
256
100
AcDbEntity
  8
Default
100
AcDbVertex
100
AcDb2dVertex
 10
383.1028124218749
 20
100.0464978559028
 30
0.0
  0
VERTEX
  5
25B
330
256
100
AcDbEntity
  8
Default
100
AcDbVertex
100
AcDb2dVertex
 10
383.4425739398871
 20
100.2308480848524
 30
0.0
  0
VERTEX
  5
25C
330
256
100
AcDbEntity
  8
Default
100
AcDbVertex
100
AcDb2dVertex
 10
383.7386138888888
 20
100.475018125
 30
0.0
  0
VERTEX
  5
25D
330
256
100
AcDbEntity
  8
Default
100
AcDbVertex
100
AcDb2dVertex
 10
383.9828814941405
 20
100.7709770453559
 30
0.0
  0
VERTEX
  5
25E
330
256
100
AcDbEntity
  8
Default
100
AcDbVertex
100
AcDb2dVertex
 10
384.1673259809027
 20
101.1106939149306
 30
0.0
  0
VERTEX
  5
25F
330
256
100
AcDbEntity
  8
Default
100
AcDbVertex
100
AcDb2dVertex
 10
384.2838965744357
 20
101.4861378027344
 30
0.0
  0
VERTEX
  5
260
330
256
100
AcDbEntity
  8
Default
100
AcDbVertex
100
AcDb2dVertex
 10
384.3142132941351
 20
101.684747712538
 30
0.0
  0
VERTEX
  5
261
330
256
100
AcDbEntity
  8
Default
100
AcDbVertex
100
AcDb2dVertex
 10
384.3245424999999
 20
101.8892777777778
 30
0.0
  0
SEQEND
  5
262
330
256
100
AcDbEntity
  8
Default
  0
POLYLINE
  5
263
330
1F
100
AcDbEntity
  8
Default
100
AcDb2dPolyline
 66
     1
 10
0.0
 20
0.0
 30
0.0
  0
VERTEX
  5
264
330
263
100
AcDbEntity
  8
Default
100
AcDbVertex
100
AcDb2dVertex
 10
384.3245424999999
 20
101.8892777777778
 30
0.0
  0
VERTEX
  5
265
330
263
100
AcDbEntity
  8
Default
100
AcDbVertex
100
AcDb2dVertex
 10
384.3142132941351
 20
102.0937551244439
 30
0.0
  0
VERTEX
  5
266
330
263
100
AcDbEntity
  8
Default
100
AcDbVertex
100
AcDb2dVertex
 10
384.2838965744357
 20
102.2923250797526
 30
0.0
  0
VERTEX
  5
267
330
263
100
AcDbEntity
  8
Default
100
AcDbVertex
100
AcDb2dVertex
 10
384.1673259809027
 20
102.6677221831597
 30
0.0
  0
VERTEX
  5
268
330
263
100
AcDbEntity
  8
Default
100
AcDbVertex
100
AcDb2dVertex
 10
383.9828814941405
 20
103.0074278217231
 30
0.0
  0
VERTEX
  5
269
330
263
100
AcDbEntity
  8
Default
100
AcDbVertex
100
AcDb2dVertex
 10
383.7386138888888
 20
103.3034007291667
 30
0.0
  0
VERTEX
  5
26A
330
263
100
AcDbEntity
  8
Default
100
AcDbVertex
100
AcDb2dVertex
 10
383.4425739398871
 20
103.5475996392144
 30
0.0
  0
VERTEX
  5
26B
330
263
100
AcDbEntity
  8
Default
100
AcDbVertex
100
AcDb2dVertex
 10
383.1028124218749
 20
103.7319832855903
 30
0.0
  0
VERTEX
  5
26C
330
263
100
AcDbEntity
  8
Default
100
AcDbVertex
100
AcDb2dVertex
 10
382.7273801095919
 20
103.8485104020182
 30
0.0
  0
VERTEX
  5
26D
330
263
100
AcDbEntity
  8
Default
100
AcDbVertex
100
AcDb2dVertex
 10
382.528803272705
 20
103.8788148657905
 30
0.0
  0
VERTEX
  5
26E
330
263
100
AcDbEntity
  8
Default
100
AcDbVertex
100
AcDb2dVertex
 10
382.3243277777777
 20
103.8891397222222
 30
0.0
  0
SEQEND
  5
26F
330
263
100
AcDbEntity
  8
Default
  0
POLYLINE
  5
270
330
1F
100
AcDbEntity
  8
Default
100
AcDb2dPolyline
 66
     1
 10
0.0
 20
0.0
 30
0.0
  0
VERTEX
  5
271
330
270
100
AcDbEntity
  8
Default
100
AcDbVertex
100
AcDb2dVertex
 10
382.3243277777777
 20
103.8891397222222
 30
0.0
  0
VERTEX
  5
272
330
270
100
AcDbEntity
  8
Default
100
AcDbVertex
100
AcDb2dVertex
 10
332.3242866666666
 20
103.8891397222222
 30
0.0
  0
SEQEND
  5
273
330
270
100
AcDbEntity
  8
Default
  0
POLYLINE
  5
274
330
1F
100
AcDbEntity
  8
Default
100
AcDb2dPolyline
 66
     1
 10
0.0
 20
0.0
 30
0.0
  0
VERTEX
  5
275
330
274
100
AcDbEntity
  8
Default
100
AcDbVertex
100
AcDb2dVertex
 10
332.3242866666666
 20
103.8891397222222
 30
0.0
  0
VERTEX
  5
276
330
274
100
AcDbEntity
  8
Default
100
AcDbVertex
100
AcDb2dVertex
 10
332.119799148356
 20
103.8788148657905
 30
0.0
  0
VERTEX
  5
277
330
274
100
AcDbEntity
  8
Default
100
AcDbVertex
100
AcDb2dVertex
 10
331.9212125618489
 20
103.8485104020182
 30
0.0
  0
VERTEX
  5
278
330
274
100
AcDbEntity
  8
Default
100
AcDbVertex
100
AcDb2dVertex
 10
331.5457667447916
 20
103.7319832855903
 30
0.0
  0
VERTEX
  5
279
330
274
100
AcDbEntity
  8
Default
100
AcDbVertex
100
AcDb2dVertex
 10
331.2059983365886
 20
103.5475996392144
 30
0.0
  0
VERTEX
  5
27A
330
274
100
AcDbEntity
  8
Default
100
AcDbVertex
100
AcDb2dVertex
 10
330.9099564583333
 20
103.3034007291667
 30
0.0
  0
VERTEX
  5
27B
330
274
100
AcDbEntity
  8
Default
100
AcDbVertex
100
AcDb2dVertex
 10
330.6656902311197
 20
103.0074278217231
 30
0.0
  0
VERTEX
  5
27C
330
274
100
AcDbEntity
  8
Default
100
AcDbVertex
100
AcDb2dVertex
 10
330.4812487760416
 20
102.6677221831597
 30
0.0
  0
VERTEX
  5
27D
330
274
100
AcDbEntity
  8
Default
100
AcDbVertex
100
AcDb2dVertex
 10
330.3646812141927
 20
102.2923250797526
 30
0.0
  0
VERTEX
  5
27E
330
274
100
AcDbEntity
  8
Default
100
AcDbVertex
100
AcDb2dVertex
 10
330.3343654935709
 20
102.0937551244439
 30
0.0
  0
VERTEX
  5
27F
330
274
100
AcDbEntity
  8
Default
100
AcDbVertex
100
AcDb2dVertex
 10
330.3240366666666
 20
101.8892777777778
 30
0.0
  0
SEQEND
  5
280
330
274
100
AcDbEntity
  8
Default
  0
POLYLINE
  5
281
330
1F
100
AcDbEntity
  8
Default
100
AcDb2dPolyline
 66
     1
 10
0.0
 20
0.0
 30
0.0
  0
VERTEX
  5
282
330
281
100
AcDbEntity
  8
Default
100
AcDbVertex
100
AcDb2dVertex
 10
330.3240366666666
 20
101.8892777777778
 30
0.0
  0
VERTEX
  5
283
330
281
100
AcDbEntity
  8
Default
100
AcDbVertex
100
AcDb2dVertex
 10
330.3343654935709
 20
101.684747712538
 30
0.0
  0
VERTEX
  5
284
330
281
100
AcDbEntity
  8
Default
100
AcDbVertex
100
AcDb2dVertex
 10
330.3646812141927
 20
101.4861378027344
 30
0.0
  0
VERTEX
  5
285
330
281
100
AcDbEntity
  8
Default
100
AcDbVertex
100
AcDb2dVertex
 10
330.4812487760416
 20
101.1106939149306
 30
0.0
  0
VERTEX
  5
286
330
281
100
AcDbEntity
  8
Default
100
AcDbVertex
100
AcDb2dVertex
 10
330.6656902311197
 20
100.7709770453559
 30
0.0
  0
VERTEX
  5
287
330
281
100
AcDbEntity
  8
Default
100
AcDbVertex
100
AcDb2dVertex
 10
330.9099564583333
 20
100.475018125
 30
0.0
  0
VERTEX
  5
288
330
281
100
AcDbEntity
  8
Default
100
AcDbVertex
100
AcDb2dVertex
 10
331.2059983365886
 20
100.2308480848524
 30
0.0
  0
VERTEX
  5
289
330
281
100
AcDbEntity
  8
Default
100
AcDbVertex
100
AcDb2dVertex
 10
331.5457667447916
 20
100.0464978559028
 30
0.0
  0
VERTEX
  5
28A
330
281
100
AcDbEntity
  8
Default
100
AcDbVertex
100
AcDb2dVertex
 10
331.9212125618489
 20
99.92999836914062
 30
0.0
  0
VERTEX
  5
28B
330
281
100
AcDbEntity
  8
Default
100
AcDbVertex
100
AcDb2dVertex
 10
332.119799148356
 20
99.8997023200141
 30
0.0
  0
VERTEX
  5
28C
330
281
100
AcDbEntity
  8
Default
100
AcDbVertex
100
AcDb2dVertex
 10
332.3242866666666
 20
99.88938055555555
 30
0.0
  0
SEQEND
  5
28D
330
281
100
AcDbEntity
  8
Default
  0
POLYLINE
  5
28E
330
1F
100
AcDbEntity
  8
Default
100
AcDb2dPolyline
 66
     1
 10
0.0
 20
0.0
 30
0.0
  0
VERTEX
  5
28F
330
28E
100
AcDbEntity
  8
Default
100
AcDbVertex
100
AcDb2dVertex
 10
257.3241544444444
 20
141.8892330555555
 30
0.0
  0
VERTEX
  5
290
330
28E
100
AcDbEntity
  8
Default
100
AcDbVertex
100
AcDb2dVertex
 10
260.3241413888888
 20
141.8892330555555
 30
0.0
  0
SEQEND
  5
291
330
28E
100
AcDbEntity
  8
Default
  0
POLYLINE
  5
292
330
1F
100
AcDbEntity
  8
Default
100
AcDb2dPolyline
 66
     1
 10
0.0
 20
0.0
 30
0.0
  0
VERTEX
  5
293
330
292
100
AcDbEntity
  8
Default
100
AcDbVertex
100
AcDb2dVertex
 10
267.3242755555555
 20
141.8892330555555
 30
0.0
  0
VERTEX
  5
294
330
292
100
AcDbEntity
  8
Default
100
AcDbVertex
100
AcDb2dVertex
 10
270.3242272222222
 20
141.8892330555555
 30
0.0
  0
SEQEND
  5
295
330
292
100
AcDbEntity
  8
Default
  0
POLYLINE
  5
296
330
1F
100
AcDbEntity
  8
Default
100
AcDb2dPolyline
 66
     1
 10
0.0
 20
0.0
 30
0.0
  0
VERTEX
  5
297
330
296
100
AcDbEntity
  8
Default
100
AcDbVertex
100
AcDb2dVertex
 10
277.3243261111111
 20
141.8892330555555
 30
0.0
  0
VERTEX
  5
298
330
296
100
AcDbEntity
  8
Default
100
AcDbVertex
100
AcDb2dVertex
 10
280.3243130555555
 20
141.8892330555555
 30
0.0
  0
SEQEND
  5
299
330
296
100
AcDbEntity
  8
Default
  0
POLYLINE
  5
29A
330
1F
100
AcDbEntity
  8
Default
100
AcDb2dPolyline
 66
     1
 10
0.0
 20
0.0
 30
0.0
  0
VERTEX
  5
29B
330
29A
100
AcDbEntity
  8
Default
100
AcDbVertex
100
AcDb2dVertex
 10
307.3241955555555
 20
141.8892330555555
 30
0.0
  0
VERTEX
  5
29C
330
29A
100
AcDbEntity
  8
Default
100
AcDbVertex
100
AcDb2dVertex
 10
310.3241824999999
 20
141.8892330555555
 30
0.0
  0
SEQEND
  5
29D
330
29A
100
AcDbEntity
  8
Default
  0
POLYLINE
  5
29E
330
1F
100
AcDbEntity
  8
Default
100
AcDb2dPolyline
 66
     1
 10
0.0
 20
0.0
 30
0.0
  0
VERTEX
  5
29F
330
29E
100
AcDbEntity
  8
Default
100
AcDbVertex
100
AcDb2dVertex
 10
357.3242719444444
 20
141.8892330555555
 30
0.0
  0
VERTEX
  5
2A0
330
29E
100
AcDbEntity
  8
Default
100
AcDbVertex
100
AcDb2dVertex
 10
360.3242588888889
 20
141.8892330555555
 30
0.0
  0
SEQEND
  5
2A1
330
29E
100
AcDbEntity
  8
Default
  0
POLYLINE
  5
2A2
330
1F
100
AcDbEntity
  8
Default
100
AcDb2dPolyline
 66
     1
 10
0.0
 20
0.0
 30
0.0
  0
VERTEX
  5
2A3
330
2A2
100
AcDbEntity
  8
Default
100
AcDbVertex
100
AcDb2dVertex
 10
333.3243411111111
 20
141.8892330555555
 30
0.0
  0
VERTEX
  5
2A4
330
2A2
100
AcDbEntity
  8
Default
100
AcDbVertex
100
AcDb2dVertex
 10
336.3243280555556
 20
141.8892330555555
 30
0.0
  0
SEQEND
  5
2A5
330
2A2
100
AcDbEntity
  8
Default
  0
POLYLINE
  5
2A6
330
1F
100
AcDbEntity
  8
Default
100
AcDb2dPolyline
 66
     1
 10
0.0
 20
0.0
 30
0.0
  0
VERTEX
  5
2A7
330
2A6
100
AcDbEntity
  8
Default
100
AcDbVertex
100
AcDb2dVertex
 10
333.3243411111111
 20
18.88973305555555
 30
0.0
  0
VERTEX
  5
2A8
330
2A6
100
AcDbEntity
  8
Default
100
AcDbVertex
100
AcDb2dVertex
 10
336.3243280555556
 20
18.88973305555555
 30
0.0
  0
SEQEND
  5
2A9
330
2A6
100
AcDbEntity
  8
Default
  0
POLYLINE
  5
2AA
330
1F
100
AcDbEntity
  8
Default
100
AcDb2dPolyline
 66
     1
 10
0.0
 20
0.0
 30
0.0
  0
VERTEX
  5
2AB
330
2AA
100
AcDbEntity
  8
Default
100
AcDbVertex
100
AcDb2dVertex
 10
357.3242719444444
 20
18.88973305555555
 30
0.0
  0
VERTEX
  5
2AC
330
2AA
100
AcDbEntity
  8
Default
100
AcDbVertex
100
AcDb2dVertex
 10
360.3242588888889
 20
18.88973305555555
 30
0.0
  0
SEQEND
  5
2AD
330
2AA
100
AcDbEntity
  8
Default
  0
POLYLINE
  5
2AE
330
1F
100
AcDbEntity
  8
Default
100
AcDb2dPolyline
 66
     1
 10
0.0
 20
0.0
 30
0.0
  0
VERTEX
  5
2AF
330
2AE
100
AcDbEntity
  8
Default
100
AcDbVertex
100
AcDb2dVertex
 10
307.3241955555555
 20
18.88973305555555
 30
0.0
  0
VERTEX
  5
2B0
330
2AE
100
AcDbEntity
  8
Default
100
AcDbVertex
100
AcDb2dVertex
 10
310.3241824999999
 20
18.88973305555555
 30
0.0
  0
SEQEND
  5
2B1
330
2AE
100
AcDbEntity
  8
Default
  0
POLYLINE
  5
2B2
330
1F
100
AcDbEntity
  8
Default
100
AcDb2dPolyline
 66
     1
 10
0.0
 20
0.0
 30
0.0
  0
VERTEX
  5
2B3
330
2B2
100
AcDbEntity
  8
Default
100
AcDbVertex
100
AcDb2dVertex
 10
282.324175
 20
18.88973305555555
 30
0.0
  0
VERTEX
  5
2B4
330
2B2
100
AcDbEntity
  8
Default
100
AcDbVertex
100
AcDb2dVertex
 10
285.3241619444444
 20
18.88973305555555
 30
0.0
  0
SEQEND
  5
2B5
330
2B2
100
AcDbEntity
  8
Default
  0
POLYLINE
  5
2B6
330
1F
100
AcDbEntity
  8
Default
100
AcDb2dPolyline
 66
     1
 10
0.0
 20
0.0
 30
0.0
  0
VERTEX
  5
2B7
330
2B6
100
AcDbEntity
  8
Default
100
AcDbVertex
100
AcDb2dVertex
 10
256.3240647222222
 20
18.88973305555555
 30
0.0
  0
VERTEX
  5
2B8
330
2B6
100
AcDbEntity
  8
Default
100
AcDbVertex
100
AcDb2dVertex
 10
259.3243691666667
 20
18.88973305555555
 30
0.0
  0
SEQEND
  5
2B9
330
2B6
100
AcDbEntity
  8
Default
  0
POLYLINE
  5
2BA
330
1F
100
AcDbEntity
  8
Default
100
AcDb2dPolyline
 66
     1
 10
0.0
 20
0.0
 30
0.0
  0
VERTEX
  5
2BB
330
2BA
100
AcDbEntity
  8
Default
100
AcDbVertex
100
AcDb2dVertex
 10
385.3243147222222
 20
18.88973305555555
 30
0.0
  0
VERTEX
  5
2BC
330
2BA
100
AcDbEntity
  8
Default
100
AcDbVertex
100
AcDb2dVertex
 10
388.3243016666667
 20
18.88973305555555
 30
0.0
  0
SEQEND
  5
2BD
330
2BA
100
AcDbEntity
  8
Default
  0
POLYLINE
  5
2BE
330
1F
100
AcDbEntity
  8
Default
100
AcDb2dPolyline
 66
     1
 10
0.0
 20
0.0
 30
0.0
  0
VERTEX
  5
2BF
330
2BE
100
AcDbEntity
  8
Default
100
AcDbVertex
100
AcDb2dVertex
 10
386.3240869444444
 20
141.8892330555555
 30
0.0
  0
VERTEX
  5
2C0
330
2BE
100
AcDbEntity
  8
Default
100
AcDbVertex
100
AcDb2dVertex
 10
389.3240738888888
 20
141.8892330555555
 30
0.0
  0
SEQEND
  5
2C1
330
2BE
100
AcDbEntity
  8
Default
  0
POLYLINE
  5
2C2
330
1F
100
AcDbEntity
  8
Default
100
AcDb2dPolyline
 66
     1
 10
0.0
 20
0.0
 30
0.0
  0
VERTEX
  5
2C3
330
2C2
100
AcDbEntity
  8
Default
100
AcDbVertex
100
AcDb2dVertex
 10
324.3243055555557
 20
6.889397222222222
 30
0.0
  0
VERTEX
  5
2C4
330
2C2
100
AcDbEntity
  8
Default
100
AcDbVertex
100
AcDb2dVertex
 10
252.3243055555555
 20
6.889397222222222
 30
0.0
  0
VERTEX
  5
2C5
330
2C2
100
AcDbEntity
  8
Default
100
AcDbVertex
100
AcDb2dVertex
 10
252.3243055555555
 20
18.88939722222225
 30
0.0
  0
VERTEX
  5
2C6
330
2C2
100
AcDbEntity
  8
Default
100
AcDbVertex
100
AcDb2dVertex
 10
252.3243055555555
 20
75.88939722222221
 30
0.0
  0
VERTEX
  5
2C7
330
2C2
100
AcDbEntity
  8
Default
100
AcDbVertex
100
AcDb2dVertex
 10
252.3243055555555
 20
141.8893972222226
 30
0.0
  0
VERTEX
  5
2C8
330
2C2
100
AcDbEntity
  8
Default
100
AcDbVertex
100
AcDb2dVertex
 10
252.3243055555555
 20
198.889397222222
 30
0.0
  0
VERTEX
  5
2C9
330
2C2
100
AcDbEntity
  8
Default
100
AcDbVertex
100
AcDb2dVertex
 10
252.3243055555555
 20
264.3893972222228
 30
0.0
  0
VERTEX
  5
2CA
330
2C2
100
AcDbEntity
  8
Default
100
AcDbVertex
100
AcDb2dVertex
 10
324.3243055555555
 20
264.3893972222228
 30
0.0
  0
VERTEX
  5
2CB
330
2C2
100
AcDbEntity
  8
Default
100
AcDbVertex
100
AcDb2dVertex
 10
396.3243055555558
 20
264.3893972222228
 30
0.0
  0
VERTEX
  5
2CC
330
2C2
100
AcDbEntity
  8
Default
100
AcDbVertex
100
AcDb2dVertex
 10
396.3243055555558
 20
198.8893972222223
 30
0.0
  0
VERTEX
  5
2CD
330
2C2
100
AcDbEntity
  8
Default
100
AcDbVertex
100
AcDb2dVertex
 10
396.3243055555558
 20
141.8893972222226
 30
0.0
  0
VERTEX
  5
2CE
330
2C2
100
AcDbEntity
  8
Default
100
AcDbVertex
100
AcDb2dVertex
 10
396.3243055555558
 20
75.88939722222213
 30
0.0
  0
VERTEX
  5
2CF
330
2C2
100
AcDbEntity
  8
Default
100
AcDbVertex
100
AcDb2dVertex
 10
396.3243055555558
 20
18.88939722222225
 30
0.0
  0
VERTEX
  5
2D0
330
2C2
100
AcDbEntity
  8
Default
100
AcDbVertex
100
AcDb2dVertex
 10
396.3243055555558
 20
6.889397222222222
 30
0.0
  0
VERTEX
  5
2D1
330
2C2
100
AcDbEntity
  8
Default
100
AcDbVertex
100
AcDb2dVertex
 10
324.3243055555557
 20
6.889397222222222
 30
0.0
  0
SEQEND
  5
2D2
330
2C2
100
AcDbEntity
  8
Default
  0
POLYLINE
  5
2D3
330
1F
100
AcDbEntity
  8
Default
100
AcDb2dPolyline
 66
     1
 10
0.0
 20
0.0
 30
0.0
  0
VERTEX
  5
2D4
330
2D3
100
AcDbEntity
  8
Default
100
AcDbVertex
100
AcDb2dVertex
 10
263.8243055555556
 20
39.88939722222224
 30
0.0
  0
VERTEX
  5
2D5
330
2D3
100
AcDbEntity
  8
Default
100
AcDbVertex
100
AcDb2dVertex
 10
264.7385191179286
 20
40.80361078459532
 30
0.0
  0
SEQEND
  5
2D6
330
2D3
100
AcDbEntity
  8
Default
  0
POLYLINE
  5
2D7
330
1F
100
AcDbEntity
  8
Default
100
AcDb2dPolyline
 66
     1
 10
0.0
 20
0.0
 30
0.0
  0
VERTEX
  5
2D8
330
2D7
100
AcDbEntity
  8
Default
100
AcDbVertex
100
AcDb2dVertex
 10
264.7385191179286
 20
40.8036107845953
 30
0.0
  0
VERTEX
  5
2D9
330
2D7
100
AcDbEntity
  8
Default
100
AcDbVertex
100
AcDb2dVertex
 10
265.0415922142626
 20
41.0523364468273
 30
0.0
  0
VERTEX
  5
2DA
330
2D7
100
AcDbEntity
  8
Default
100
AcDbVertex
100
AcDb2dVertex
 10
265.3873658155716
 20
41.23715628724479
 30
0.0
  0
VERTEX
  5
2DB
330
2D7
100
AcDbEntity
  8
Default
100
AcDbVertex
100
AcDb2dVertex
 10
265.7625520362695
 20
41.35096778302868
 30
0.0
  0
VERTEX
  5
2DC
330
2D7
100
AcDbEntity
  8
Default
100
AcDbVertex
100
AcDb2dVertex
 10
266.1527326803017
 20
41.38939722222221
 30
0.0
  0
SEQEND
  5
2DD
330
2D7
100
AcDbEntity
  8
Default
  0
POLYLINE
  5
2DE
330
1F
100
AcDbEntity
  8
Default
100
AcDb2dPolyline
 66
     1
 10
0.0
 20
0.0
 30
0.0
  0
VERTEX
  5
2DF
330
2DE
100
AcDbEntity
  8
Default
100
AcDbVertex
100
AcDb2dVertex
 10
266.1527326803018
 20
41.38939722222221
 30
0.0
  0
VERTEX
  5
2E0
330
2DE
100
AcDbEntity
  8
Default
100
AcDbVertex
100
AcDb2dVertex
 10
277.4958784308094
 20
41.38939722222224
 30
0.0
  0
SEQEND
  5
2E1
330
2DE
100
AcDbEntity
  8
Default
  0
POLYLINE
  5
2E2
330
1F
100
AcDbEntity
  8
Default
100
AcDb2dPolyline
 66
     1
 10
0.0
 20
0.0
 30
0.0
  0
VERTEX
  5
2E3
330
2E2
100
AcDbEntity
  8
Default
100
AcDbVertex
100
AcDb2dVertex
 10
277.4958784308094
 20
41.38939722222224
 30
0.0
  0
VERTEX
  5
2E4
330
2E2
100
AcDbEntity
  8
Default
100
AcDbVertex
100
AcDb2dVertex
 10
277.8860590748417
 20
41.3509677830287
 30
0.0
  0
VERTEX
  5
2E5
330
2E2
100
AcDbEntity
  8
Default
100
AcDbVertex
100
AcDb2dVertex
 10
278.2612452955396
 20
41.23715628724481
 30
0.0
  0
VERTEX
  5
2E6
330
2E2
100
AcDbEntity
  8
Default
100
AcDbVertex
100
AcDb2dVertex
 10
278.6070188968486
 20
41.05233644682731
 30
0.0
  0
VERTEX
  5
2E7
330
2E2
100
AcDbEntity
  8
Default
100
AcDbVertex
100
AcDb2dVertex
 10
278.9100919931825
 20
40.8036107845953
 30
0.0
  0
SEQEND
  5
2E8
330
2E2
100
AcDbEntity
  8
Default
  0
POLYLINE
  5
2E9
330
1F
100
AcDbEntity
  8
Default
100
AcDb2dPolyline
 66
     1
 10
0.0
 20
0.0
 30
0.0
  0
VERTEX
  5
2EA
330
2E9
100
AcDbEntity
  8
Default
100
AcDbVertex
100
AcDb2dVertex
 10
278.9100919931825
 20
40.80361078459529
 30
0.0
  0
VERTEX
  5
2EB
330
2E9
100
AcDbEntity
  8
Default
100
AcDbVertex
100
AcDb2dVertex
 10
279.8243055555556
 20
39.88939722222224
 30
0.0
  0
SEQEND
  5
2EC
330
2E9
100
AcDbEntity
  8
Default
  0
POLYLINE
  5
2ED
330
1F
100
AcDbEntity
  8
Default
100
AcDb2dPolyline
 66
     1
 10
0.0
 20
0.0
 30
0.0
  0
VERTEX
  5
2EE
330
2ED
100
AcDbEntity
  8
Default
100
AcDbVertex
100
AcDb2dVertex
 10
405.2643430555554
 20
205.7378863888889
 30
0.0
  0
VERTEX
  5
2EF
330
2ED
100
AcDbEntity
  8
Default
100
AcDbVertex
100
AcDb2dVertex
 10
405.2977323187222
 20
206.1018124937131
 30
0.0000000000000001
  0
VERTEX
  5
2F0
330
2ED
100
AcDbEntity
  8
Default
100
AcDbVertex
100
AcDb2dVertex
 10
405.4047664534306
 20
206.4740758080126
 30
0.0000000000000001
  0
VERTEX
  5
2F1
330
2ED
100
AcDbEntity
  8
Default
100
AcDbVertex
100
AcDb2dVertex
 10
405.487775041896
 20
206.6564755750009
 30
0.0000000000000001
  0
VERTEX
  5
2F2
330
2ED
100
AcDbEntity
  8
Default
100
AcDbVertex
100
AcDb2dVertex
 10
405.5903520331181
 20
206.8323058956591
 30
0.0000000000000001
  0
VERTEX
  5
2F3
330
2ED
100
AcDbEntity
  8
Default
100
AcDbVertex
100
AcDb2dVertex
 10
405.7116366804057
 20
206.9984826416873
 30
0.0000000000000001
  0
VERTEX
  5
2F4
330
2ED
100
AcDbEntity
  8
Default
100
AcDbVertex
100
AcDb2dVertex
 10
405.8501294931823
 20
207.152099951262
 30
0.0000000000000001
  0
VERTEX
  5
2F5
330
2ED
100
AcDbEntity
  8
Default
100
AcDbVertex
100
AcDb2dVertex
 10
406.003746802757
 20
207.2905927640386
 30
0.0000000000000001
  0
VERTEX
  5
2F6
330
2ED
100
AcDbEntity
  8
Default
100
AcDbVertex
100
AcDb2dVertex
 10
406.1699235487851
 20
207.4118774113261
 30
0.0000000000000001
  0
VERTEX
  5
2F7
330
2ED
100
AcDbEntity
  8
Default
100
AcDbVertex
100
AcDb2dVertex
 10
406.3457538694435
 20
207.5144544025484
 30
0.0000000000000001
  0
VERTEX
  5
2F8
330
2ED
100
AcDbEntity
  8
Default
100
AcDbVertex
100
AcDb2dVertex
 10
406.5281536364317
 20
207.5974629910137
 30
0.0000000000000001
  0
VERTEX
  5
2F9
330
2ED
100
AcDbEntity
  8
Default
100
AcDbVertex
100
AcDb2dVertex
 10
406.9004169507311
 20
207.704497125722
 30
0.0000000000000001
  0
VERTEX
  5
2FA
330
2ED
100
AcDbEntity
  8
Default
100
AcDbVertex
100
AcDb2dVertex
 10
407.2643430555554
 20
207.7378863888889
 30
0.0
  0
VERTEX
  5
2FB
330
2ED
100
AcDbEntity
  8
Default
100
AcDbVertex
100
AcDb2dVertex
 10
418.2643430555555
 20
207.7378863888889
 30
0.0
  0
VERTEX
  5
2FC
330
2ED
100
AcDbEntity
  8
Default
100
AcDbVertex
100
AcDb2dVertex
 10
418.6282691603798
 20
207.704497125722
 30
0.0000000000000001
  0
VERTEX
  5
2FD
330
2ED
100
AcDbEntity
  8
Default
100
AcDbVertex
100
AcDb2dVertex
 10
419.0005324746793
 20
207.5974629910137
 30
0.0000000000000001
  0
VERTEX
  5
2FE
330
2ED
100
AcDbEntity
  8
Default
100
AcDbVertex
100
AcDb2dVertex
 10
419.1829322416676
 20
207.5144544025484
 30
0.0000000000000001
  0
VERTEX
  5
2FF
330
2ED
100
AcDbEntity
  8
Default
100
AcDbVertex
100
AcDb2dVertex
 10
419.3587625623258
 20
207.4118774113261
 30
0.0000000000000001
  0
VERTEX
  5
300
330
2ED
100
AcDbEntity
  8
Default
100
AcDbVertex
100
AcDb2dVertex
 10
419.524939308354
 20
207.2905927640386
 30
0.0000000000000001
  0
VERTEX
  5
301
330
2ED
100
AcDbEntity
  8
Default
100
AcDbVertex
100
AcDb2dVertex
 10
419.6785566179286
 20
207.152099951262
 30
0.0000000000000001
  0
VERTEX
  5
302
330
2ED
100
AcDbEntity
  8
Default
100
AcDbVertex
100
AcDb2dVertex
 10
419.8170494307053
 20
206.9984826416873
 30
0.0000000000000001
  0
VERTEX
  5
303
330
2ED
100
AcDbEntity
  8
Default
100
AcDbVertex
100
AcDb2dVertex
 10
419.9383340779929
 20
206.8323058956591
 30
0.0000000000000001
  0
VERTEX
  5
304
330
2ED
100
AcDbEntity
  8
Default
100
AcDbVertex
100
AcDb2dVertex
 10
420.0409110692151
 20
206.6564755750009
 30
0.0000000000000001
  0
VERTEX
  5
305
330
2ED
100
AcDbEntity
  8
Default
100
AcDbVertex
100
AcDb2dVertex
 10
420.1239196576805
 20
206.4740758080126
 30
0.0000000000000001
  0
VERTEX
  5
306
330
2ED
100
AcDbEntity
  8
Default
100
AcDbVertex
100
AcDb2dVertex
 10
420.2309537923886
 20
206.1018124937131
 30
0.0000000000000001
  0
VERTEX
  5
307
330
2ED
100
AcDbEntity
  8
Default
100
AcDbVertex
100
AcDb2dVertex
 10
420.2643430555555
 20
205.7378863888889
 30
0.0
  0
VERTEX
  5
308
330
2ED
100
AcDbEntity
  8
Default
100
AcDbVertex
100
AcDb2dVertex
 10
420.2643430555555
 20
78.9845706715643
 30
0.0
  0
VERTEX
  5
309
330
2ED
100
AcDbEntity
  8
Default
100
AcDbVertex
100
AcDb2dVertex
 10
420.2379111539167
 20
78.6604889517295
 30
0.0000000000000001
  0
VERTEX
  5
30A
330
2ED
100
AcDbEntity
  8
Default
100
AcDbVertex
100
AcDb2dVertex
 10
420.1545232518695
 20
78.33095088494326
 30
0.0000000000000001
  0
VERTEX
  5
30B
330
2ED
100
AcDbEntity
  8
Default
100
AcDbVertex
100
AcDb2dVertex
 10
420.0113737771837
 20
78.01097750309619
 30
0.0000000000000001
  0
VERTEX
  5
30C
330
2ED
100
AcDbEntity
  8
Default
100
AcDbVertex
100
AcDb2dVertex
 10
419.8110273382313
 20
77.71659286035322
 30
0.0000000000000001
  0
VERTEX
  5
30D
330
2ED
100
AcDbEntity
  8
Default
100
AcDbVertex
100
AcDb2dVertex
 10
419.5616506156334
 20
77.4624034354944
 30
0.0000000000000001
  0
VERTEX
  5
30E
330
2ED
100
AcDbEntity
  8
Default
100
AcDbVertex
100
AcDb2dVertex
 10
419.2759648223811
 20
77.2592818838871
 30
0.0000000000000001
  0
VERTEX
  5
30F
330
2ED
100
AcDbEntity
  8
Default
100
AcDbVertex
100
AcDb2dVertex
 10
418.9691798752527
 20
77.11288558651417
 30
0.0000000000000001
  0
VERTEX
  5
310
330
2ED
100
AcDbEntity
  8
Default
100
AcDbVertex
100
AcDb2dVertex
 10
418.6565753258318
 20
77.02340932018244
 30
0.0
  0
VERTEX
  5
311
330
2ED
100
AcDbEntity
  8
Default
100
AcDbVertex
100
AcDb2dVertex
 10
407.6565753258318
 20
74.82340932018248
 30
0.0
  0
VERTEX
  5
312
330
2ED
100
AcDbEntity
  8
Default
100
AcDbVertex
100
AcDb2dVertex
 10
407.4426112888221
 20
74.79253140563405
 30
0.0
  0
VERTEX
  5
313
330
2ED
100
AcDbEntity
  8
Default
100
AcDbVertex
100
AcDb2dVertex
 10
407.2225544581
 20
74.78500729094276
 30
0.0000000000000001
  0
VERTEX
  5
314
330
2ED
100
AcDbEntity
  8
Default
100
AcDbVertex
100
AcDb2dVertex
 10
407.0002705672919
 20
74.80208089329498
 30
0.0000000000000001
  0
VERTEX
  5
315
330
2ED
100
AcDbEntity
  8
Default
100
AcDbVertex
100
AcDb2dVertex
 10
406.7799048518208
 20
74.84412751940488
 30
0.0000000000000001
  0
VERTEX
  5
316
330
2ED
100
AcDbEntity
  8
Default
100
AcDbVertex
100
AcDb2dVertex
 10
406.5656344549812
 20
74.91058927051371
 30
0.0000000000000001
  0
VERTEX
  5
317
330
2ED
100
AcDbEntity
  8
Default
100
AcDbVertex
100
AcDb2dVertex
 10
406.3614085926266
 20
74.99999527230109
 30
0.0000000000000001
  0
VERTEX
  5
318
330
2ED
100
AcDbEntity
  8
Default
100
AcDbVertex
100
AcDb2dVertex
 10
406.1707096986737
 20
75.1100659445732
 30
0.0
  0
VERTEX
  5
319
330
2ED
100
AcDbEntity
  8
Default
100
AcDbVertex
100
AcDb2dVertex
 10
405.9963652443444
 20
75.2378863888885
 30
0.0
  0
VERTEX
  5
31A
330
2ED
100
AcDbEntity
  8
Default
100
AcDbVertex
100
AcDb2dVertex
 10
405.8368352261247
 20
75.38377754018694
 30
0.0
  0
VERTEX
  5
31B
330
2ED
100
AcDbEntity
  8
Default
100
AcDbVertex
100
AcDb2dVertex
 10
405.6915029218771
 20
75.54918655563476
 30
0.0000000000000001
  0
VERTEX
  5
31C
330
2ED
100
AcDbEntity
  8
Default
100
AcDbVertex
100
AcDb2dVertex
 10
405.5637811374135
 20
75.73191253020727
 30
0.0000000000000001
  0
VERTEX
  5
31D
330
2ED
100
AcDbEntity
  8
Default
100
AcDbVertex
100
AcDb2dVertex
 10
405.4565881465008
 20
75.92898771895894
 30
0.0000000000000001
  0
VERTEX
  5
31E
330
2ED
100
AcDbEntity
  8
Default
100
AcDbVertex
100
AcDb2dVertex
 10
405.3721407650243
 20
76.1368280593264
 30
0.0000000000000001
  0
VERTEX
  5
31F
330
2ED
100
AcDbEntity
  8
Default
100
AcDbVertex
100
AcDb2dVertex
 10
405.3118052629245
 20
76.351446938264
 30
0.0000000000000001
  0
VERTEX
  5
320
330
2ED
100
AcDbEntity
  8
Default
100
AcDbVertex
100
AcDb2dVertex
 10
405.2760265692406
 20
76.56870601431741
 30
0.0
  0
VERTEX
  5
321
330
2ED
100
AcDbEntity
  8
Default
100
AcDbVertex
100
AcDb2dVertex
 10
405.2643430555554
 20
76.78457067156431
 30
0.0
  0
VERTEX
  5
322
330
2ED
100
AcDbEntity
  8
Default
100
AcDbVertex
100
AcDb2dVertex
 10
405.2643430555554
 20
205.7378863888889
 30
0.0
  0
SEQEND
  5
323
330
2ED
100
AcDbEntity
  8
Default
  0
ENDSEC
  0
SECTION
  2
OBJECTS
  0
DICTIONARY
  5
C
330
0
100
AcDbDictionary
281
     1
  3
ACAD_GROUP
350
D
  3
ACAD_LAYOUT
350
1A
  3
ACAD_MLEADERSTYLE
350
325
  3
ACAD_MLINESTYLE
350
17
  3
ACAD_PLOTSETTINGS
350
19
  3
ACAD_PLOTSTYLENAME
350
E
  3
ACAD_TABLESTYLE
350
324
  3
ACAD_VISUALSTYLE
350
2A
  0
DICTIONARY
  5
D
102
{ACAD_REACTORS
330
C
102
}
330
C
100
AcDbDictionary
281
     1
  0
DICTIONARY
  5
1A
102
{ACAD_REACTORS
330
C
102
}
330
C
100
AcDbDictionary
281
     1
  3
Layout1
350
1E
  3
Layout2
350
26
  3
Model
350
22
  0
DICTIONARY
  5
325
102
{ACAD_REACTORS
330
C
102
}
330
C
100
AcDbDictionary
281
     1
  0
DICTIONARY
  5
17
102
{ACAD_REACTORS
330
C
102
}
330
C
100
AcDbDictionary
281
     1
  3
Standard
350
18
  0
DICTIONARY
  5
19
102
{ACAD_REACTORS
330
C
102
}
330
C
100
AcDbDictionary
281
     1
  0
ACDBDICTIONARYWDFLT
  5
E
102
{ACAD_REACTORS
330
C
102
}
330
C
100
AcDbDictionary
281
     1
  3
Normal
350
F
100
AcDbDictionaryWithDefault
340
F
  0
DICTIONARY
  5
324
102
{ACAD_REACTORS
330
C
102
}
330
C
100
AcDbDictionary
281
     1
  0
DICTIONARY
  5
2A
102
{ACAD_REACTORS
330
C
102
}
330
C
100
AcDbDictionary
281
     1
  3
2dWireframe
350
2F
  3
3D Hidden
350
31
  3
3dWireframe
350
30
  3
Basic
350
32
  3
Brighten
350
36
  3
ColorChange
350
3A
  3
Conceptual
350
34
  3
Dim
350
35
  3
Facepattern
350
39
  3
Flat
350
2B
  3
FlatWithEdges
350
2C
  3
Gouraud
350
2D
  3
GouraudWithEdges
350
2E
  3
Linepattern
350
38
  3
Realistic
350
33
  3
Thicken
350
37
  0
LAYOUT
  5
1E
102
{ACAD_REACTORS
330
1A
102
}
330
1A
100
AcDbPlotSettings
  1

  2
none_device
  4

  6

 40
0.0
 41
0.0
 42
0.0
 43
0.0
 44
0.0
 45
0.0
 46
0.0
 47
0.0
 48
0.0
 49
0.0
140
0.0
141
0.0
142
1.0
143
1.0
 70
   688
 72
     0
 73
     0
 74
     5
  7

 75
    16
 76
     0
 77
     2
 78
   300
147
1.0
148
0.0
149
0.0
100
AcDbLayout
  1
Layout1
 70
     1
 71
     1
 10
0.0
 20
0.0
 11
12.0
 21
9.0
 12
0.0
 22
0.0
 32
0.0
 14
1.000000000000000E+20
 24
1.000000000000000E+20
 34
1.000000000000000E+20
 15
-1.000000000000000E+20
 25
-1.000000000000000E+20
 35
-1.000000000000000E+20
146
0.0
 13
0.0
 23
0.0
 33
0.0
 16
1.0
 26
0.0
 36
0.0
 17
0.0
 27
1.0
 37
0.0
 76
     0
330
1B
  0
LAYOUT
  5
26
102
{ACAD_REACTORS
330
1A
102
}
330
1A
100
AcDbPlotSettings
  1

  2
none_device
  4

  6

 40
0.0
 41
0.0
 42
0.0
 43
0.0
 44
0.0
 45
0.0
 46
0.0
 47
0.0
 48
0.0
 49
0.0
140
0.0
141
0.0
142
1.0
143
1.0
 70
   688
 72
     0
 73
     0
 74
     5
  7

 75
    16
 76
     0
 77
     2
 78
   300
147
1.0
148
0.0
149
0.0
100
AcDbLayout
  1
Layout2
 70
     1
 71
     2
 10
0.0
 20
0.0
 11
0.0
 21
0.0
 12
0.0
 22
0.0
 32
0.0
 14
0.0
 24
0.0
 34
0.0
 15
0.0
 25
0.0
 35
0.0
146
0.0
 13
0.0
 23
0.0
 33
0.0
 16
1.0
 26
0.0
 36
0.0
 17
0.0
 27
1.0
 37
0.0
 76
     0
330
23
  0
LAYOUT
  5
22
102
{ACAD_REACTORS
330
1A
102
}
330
1A
100
AcDbPlotSettings
  1

  2
none_device
  4

  6

 40
0.0
 41
0.0
 42
0.0
 43
0.0
 44
0.0
 45
0.0
 46
0.0
 47
0.0
 48
0.0
 49
0.0
140
0.0
141
0.0
142
1.0
143
1.0
 70
  1712
 72
     0
 73
     0
 74
     0
  7

 75
     0
 76
     0
 77
     2
 78
   300
147
1.0
148
0.0
149
0.0
100
AcDbLayout
  1
Model
 70
     1
 71
     0
 10
0.0
 20
0.0
 11
12.0
 21
9.0
 12
0.0
 22
0.0
 32
0.0
 14
227.4720636111111
 24
-13.01383111111111
 34
0.0
 15
437.4719963888888
 25
283.9859347222222
 35
0.0
146
0.0
 13
0.0
 23
0.0
 33
0.0
 16
1.0
 26
0.0
 36
0.0
 17
0.0
 27
1.0
 37
0.0
 76
     0
330
1F
331
29
  0
MLINESTYLE
  5
18
102
{ACAD_REACTORS
330
17
102
}
330
17
100
AcDbMlineStyle
  2
Standard
 70
     0
  3

 62
   256
 51
90.0
 52
90.0
 71
     2
 49
0.5
 62
   256
  6
BYLAYER
 49
-0.5
 62
   256
  6
BYLAYER
  0
ACDBPLACEHOLDER
  5
F
102
{ACAD_REACTORS
330
E
102
}
330
E
  0
VISUALSTYLE
  5
2F
102
{ACAD_REACTORS
330
2A
102
}
330
2A
100
AcDbVisualStyle
  2
2dWireframe
 70
     4
 71
     0
 72
     2
 73
     0
 90
        0
 40
-0.6
 41
-30.0
 62
     5
 63
     7
421
 16777215
 74
     1
 91
        4
 64
     7
 65
   257
 75
     1
175
     1
 42
1.0
 92
        0
 66
   257
 43
1.0
 76
     1
 77
     6
 78
     2
 67
     7
 79
     5
170
     0
171
     0
290
     0
174
     0
 93
        1
 44
0.0
173
     0
291
     0
 45
0.0
1001
ACAD
1000
AcDbSavedByObjectVersion
1070
     0
  0
VISUALSTYLE
  5
31
102
{ACAD_REACTORS
330
2A
102
}
330
2A
100
AcDbVisualStyle
  2
3D Hidden
 70
     6
 71
     1
 72
     2
 73
     2
 90
        0
 40
-0.6
 41
-30.0
 62
     5
 63
     7
421
 16777215
 74
     2
 91
        2
 64
     7
 65
   257
 75
     2
175
     1
 42
40.0
 92
        0
 66
   257
 43
1.0
 76
     1
 77
     6
 78
     2
 67
     7
 79
     3
170
     0
171
     0
290
     0
174
     0
 93
        1
 44
0.0
173
     0
291
     0
 45
0.0
1001
ACAD
1000
AcDbSavedByObjectVersion
1070
     0
  0
VISUALSTYLE
  5
30
102
{ACAD_REACTORS
330
2A
102
}
330
2A
100
AcDbVisualStyle
  2
3dWireframe
 70
     5
 71
     0
 72
     2
 73
     0
 90
        0
 40
-0.6
 41
-30.0
 62
     5
 63
     7
421
 16777215
 74
     1
 91
        4
 64
     7
 65
   257
 75
     1
175
     1
 42
1.0
 92
        0
 66
   257
 43
1.0
 76
     1
 77
     6
 78
     2
 67
     7
 79
     5
170
     0
171
     0
290
     0
174
     0
 93
        1
 44
0.0
173
     0
291
     0
 45
0.0
1001
ACAD
1000
AcDbSavedByObjectVersion
1070
     0
  0
VISUALSTYLE
  5
32
102
{ACAD_REACTORS
330
2A
102
}
330
2A
100
AcDbVisualStyle
  2
Basic
 70
     7
 71
     1
 72
     0
 73
     1
 90
        0
 40
-0.6
 41
-30.0
 62
     5
 63
     7
421
 16777215
 74
     0
 91
        4
 64
     7
 65
   257
 75
     1
175
     1
 42
1.0
 92
        8
 66
     7
 43
1.0
 76
     1
 77
     6
 78
     2
 67
     7
 79
     5
170
     0
171
     0
290
     0
174
     0
 93
        1
 44
0.0
173
     0
291
     1
 45
0.0
1001
ACAD
1000
AcDbSavedByObjectVersion
1070
     0
  0
VISUALSTYLE
  5
36
102
{ACAD_REACTORS
330
2A
102
}
330
2A
100
AcDbVisualStyle
  2
Brighten
 70
    12
 71
     2
 72
     2
 73
     0
 90
        0
 40
-0.6
 41
-30.0
 62
     5
 63
     7
421
 16777215
 74
     1
 91
        4
 64
     7
 65
   257
 75
     1
175
     1
 42
1.0
 92
        8
 66
     7
 43
1.0
 76
     1
 77
     6
 78
     2
 67
     7
 79
     5
170
     0
171
     0
290
     0
174
     0
 93
        1
 44
50.0
173
     0
291
     1
 45
0.0
1001
ACAD
1000
AcDbSavedByObjectVersion
1070
     0
  0
VISUALSTYLE
  5
3A
102
{ACAD_REACTORS
330
2A
102
}
330
2A
100
AcDbVisualStyle
  2
ColorChange
 70
    16
 71
     2
 72
     2
 73
     3
 90
        0
 40
-0.6
 41
-30.0
 62
     5
 63
     8
421
  8421504
 74
     1
 91
        4
 64
     7
 65
   257
 75
     1
175
     1
 42
1.0
 92
        8
 66
     8
424
  8421504
 43
1.0
 76
     1
 77
     6
 78
     2
 67
     7
 79
     5
170
     0
171
     0
290
     0
174
     0
 93
        1
 44
0.0
173
     0
291
     1
 45
0.0
1001
ACAD
1000
AcDbSavedByObjectVersion
1070
     0
  0
VISUALSTYLE
  5
34
102
{ACAD_REACTORS
330
2A
102
}
330
2A
100
AcDbVisualStyle
  2
Conceptual
 70
     9
 71
     3
 72
     2
 73
     0
 90
        0
 40
-0.6
 41
-30.0
 62
     5
 63
     7
421
 16777215
 74
     2
 91
        2
 64
     7
 65
   257
 75
     1
175
     1
 42
40.0
 92
        8
 66
     7
 43
1.0
 76
     1
 77
     6
 78
     2
 67
     7
 79
     3
170
     0
171
     0
290
     0
174
     0
 93
        1
 44
0.0
173
     0
291
     0
 45
0.0
1001
ACAD
1000
AcDbSavedByObjectVersion
1070
     0
  0
VISUALSTYLE
  5
35
102
{ACAD_REACTORS
330
2A
102
}
330
2A
100
AcDbVisualStyle
  2
Dim
 70
    11
 71
     2
 72
     2
 73
     0
 90
        0
 40
-0.6
 41
-30.0
 62
     5
 63
     7
421
 16777215
 74
     1
 91
        4
 64
     7
 65
   257
 75
     1
175
     1
 42
1.0
 92
        8
 66
     7
 43
1.0
 76
     1
 77
     6
 78
     2
 67
     7
 79
     5
170
     0
171
     0
290
     0
174
     0
 93
        1
 44
-50.0
173
     0
291
     1
 45
0.0
1001
ACAD
1000
AcDbSavedByObjectVersion
1070
     0
  0
VISUALSTYLE
  5
39
102
{ACAD_REACTORS
330
2A
102
}
330
2A
100
AcDbVisualStyle
  2
Facepattern
 70
    15
 71
     2
 72
     2
 73
     0
 90
        0
 40
-0.6
 41
-30.0
 62
     5
 63
     7
421
 16777215
 74
     1
 91
        4
 64
     7
 65
   257
 75
     1
175
     1
 42
1.0
 92
        8
 66
     7
 43
1.0
 76
     1
 77
     6
 78
     2
 67
     7
 79
     5
170
     0
171
     0
290
     0
174
     0
 93
        1
 44
0.0
173
     0
291
     1
 45
0.0
1001
ACAD
1000
AcDbSavedByObjectVersion
1070
     0
  0
VISUALSTYLE
  5
2B
102
{ACAD_REACTORS
330
2A
102
}
330
2A
100
AcDbVisualStyle
  2
Flat
 70
     0
 71
     2
 72
     1
 73
     1
 90
        2
 40
-0.6
 41
30.0
 62
     5
 63
     7
421
 16777215
 74
     0
 91
        4
 64
     7
 65
   257
 75
     1
175
     1
 42
1.0
 92
        8
 66
     7
 43
1.0
 76
     1
 77
     6
 78
     2
 67
     7
 79
     5
170
     0
171
     0
290
     0
174
     0
 93
       13
 44
0.0
173
     0
291
     1
 45
0.0
1001
ACAD
1000
AcDbSavedByObjectVersion
1070
     0
  0
VISUALSTYLE
  5
2C
102
{ACAD_REACTORS
330
2A
102
}
330
2A
100
AcDbVisualStyle
  2
FlatWithEdges
 70
     1
 71
     2
 72
     1
 73
     1
 90
        2
 40
-0.6
 41
30.0
 62
     5
 63
     7
421
 16777215
 74
     1
 91
        4
 64
     7
 65
   257
 75
     1
175
     1
 42
1.0
 92
        0
 66
   257
 43
1.0
 76
     1
 77
     6
 78
     2
 67
     7
 79
     5
170
     0
171
     0
290
     0
174
     0
 93
       13
 44
0.0
173
     0
291
     1
 45
0.0
1001
ACAD
1000
AcDbSavedByObjectVersion
1070
     0
  0
VISUALSTYLE
  5
2D
102
{ACAD_REACTORS
330
2A
102
}
330
2A
100
AcDbVisualStyle
  2
Gouraud
 70
     2
 71
     2
 72
     2
 73
     1
 90
        2
 40
-0.6
 41
30.0
 62
     5
 63
     7
421
 16777215
 74
     0
 91
        4
 64
     7
 65
   257
 75
     1
175
     1
 42
1.0
 92
        0
 66
     7
 43
1.0
 76
     1
 77
     6
 78
     2
 67
     7
 79
     5
170
     0
171
     0
290
     0
174
     0
 93
       13
 44
0.0
173
     0
291
     1
 45
0.0
1001
ACAD
1000
AcDbSavedByObjectVersion
1070
     0
  0
VISUALSTYLE
  5
2E
102
{ACAD_REACTORS
330
2A
102
}
330
2A
100
AcDbVisualStyle
  2
GouraudWithEdges
 70
     3
 71
     2
 72
     2
 73
     1
 90
        2
 40
-0.6
 41
30.0
 62
     5
 63
     7
421
 16777215
 74
     1
 91
        4
 64
     7
 65
   257
 75
     1
175
     1
 42
1.0
 92
        0
 66
   257
 43
1.0
 76
     1
 77
     6
 78
     2
 67
     7
 79
     5
170
     0
171
     0
290
     0
174
     0
 93
       13
 44
0.0
173
     0
291
     1
 45
0.0
1001
ACAD
1000
AcDbSavedByObjectVersion
1070
     0
  0
VISUALSTYLE
  5
38
102
{ACAD_REACTORS
330
2A
102
}
330
2A
100
AcDbVisualStyle
  2
Linepattern
 70
    14
 71
     2
 72
     2
 73
     0
 90
        0
 40
-0.6
 41
-30.0
 62
     5
 63
     7
421
 16777215
 74
     1
 91
        4
 64
     7
 65
   257
 75
     7
175
     7
 42
1.0
 92
        8
 66
     7
 43
1.0
 76
     1
 77
     6
 78
     2
 67
     7
 79
     5
170
     0
171
     0
290
     0
174
     0
 93
        1
 44
0.0
173
     0
291
     1
 45
0.0
1001
ACAD
1000
AcDbSavedByObjectVersion
1070
     0
  0
VISUALSTYLE
  5
33
102
{ACAD_REACTORS
330
2A
102
}
330
2A
100
AcDbVisualStyle
  2
Realistic
 70
     8
 71
     2
 72
     2
 73
     0
 90
        0
 40
-0.6
 41
-30.0
 62
     5
 63
     7
421
 16777215
 74
     1
 91
        0
 64
     7
 65
   257
 75
     1
175
     1
 42
1.0
 92
        8
 66
     8
424
  7895160
 43
1.0
 76
     1
 77
     6
 78
     2
 67
     7
 79
     5
170
     0
171
     0
290
     0
174
     0
 93
       13
 44
0.0
173
     0
291
     0
 45
0.0
1001
ACAD
1000
AcDbSavedByObjectVersion
1070
     0
  0
VISUALSTYLE
  5
37
102
{ACAD_REACTORS
330
2A
102
}
330
2A
100
AcDbVisualStyle
  2
Thicken
 70
    13
 71
     2
 72
     2
 73
     0
 90
        0
 40
-0.6
 41
-30.0
 62
     5
 63
     7
421
 16777215
 74
     1
 91
        4
 64
     7
 65
   257
 75
     1
175
     1
 42
1.0
 92
       12
 66
     7
 43
1.0
 76
     1
 77
     6
 78
     2
 67
     7
 79
     5
170
     0
171
     0
290
     0
174
     0
 93
        1
 44
0.0
173
     0
291
     1
 45
0.0
1001
ACAD
1000
AcDbSavedByObjectVersion
1070
     0
  0
ENDSEC
  0
EOF
